<?xml version="1.0" standalone="no"?>
<!DOCTYPE svg PUBLIC "-//W3C//DTD SVG 1.1//EN" "http://www.w3.org/Graphics/SVG/1.1/DTD/svg11.dtd">
<svg xmlns="http://www.w3.org/2000/svg">
<defs >
<font id="YanoneKaffeesatz" horiz-adv-x="405" ><font-face
    font-family="Yanone Kaffeesatz ExtraLight"
    units-per-em="1000"
    panose-1="0 0 0 0 0 0 0 0 0 0"
    ascent="735"
    descent="-200"
    alphabetic="0" />
<glyph unicode=" " horiz-adv-x="140" />
<glyph unicode="!" horiz-adv-x="202" d="M47 241L26 673Q26 689 36 695T81 704T184 706L159 293Q158 268 148 257T115 244T47 241ZM101 -8Q60 -8 45 10T30 63Q30 92 48 114T101 136Q142 136 157 116T172 63Q172 34 154 13T101 -8Z" />
<glyph unicode="&quot;" horiz-adv-x="289" d="M45 583Q45 583 42 602T36 650T29 708T25 758T28 781Q35 786 54 786T96 786T132 783Q131 761 129 729T122 665T114 611T106 586Q106 586 91 585T61 584T45 583ZM177 583Q177 583 174 602T168 650T161 708T157 758T160
781Q167 786 186 786T228 786T264 783Q263 761 261 729T254 665T246 611T238 586Q238 586 223 585T193 584T177 583Z" />
<glyph unicode="#" horiz-adv-x="400" d="M227 107L247 487Q248 502 271 504T344 507L324 127Q323 112 300 110T227 107ZM57 107L77 487Q78 502 101 504T174 507L154 127Q153 112 130 110T57 107ZM15 180Q15 230 17 248T35 266H385Q385 217 383 199T365 180H15ZM15
350Q15 400 17 418T35 436H385Q385 387 383 369T365 350H15Z" />
<glyph unicode="$" horiz-adv-x="400" d="M170 -8Q124 -8 95 0T51 18T36 39Q36 45 39 62T49 100T62 131Q78 119 104 111T164 103Q194 103 213 117T232 162Q232 186 223 202T190 247L78 371Q53 400 44 427T35 478Q35 546 79 581T206 617Q264 617 296 611T343 595T357
578Q357 567 352 544T330 502Q322 507 296 513T241 519Q204 519 182 512T160 481Q160 461 166 447T193 410L311 282Q334 257 345 228T357 161Q357 118 342 79T286 16T170 -8ZM137 -123V24H239V-82Q239 -109 213 -116T137 -123ZM157 552V695Q157 722 183 730T259
738V546L157 552Z" />
<glyph unicode="%" horiz-adv-x="667" d="M159 339Q113 339 84 353T40 408T25 526Q25 620 62 664T167 708Q213 708 242 693T285 638T300 528Q300 428 265 384T159 339ZM165 424Q173 424 180 431T192 460T197 526Q197 568 195 589T186 617T166 624Q151 624 142
606T132 526Q132 481 135 460T146 431T165 424ZM174 -8Q174 -8 164 -5T140 5T117 18T106 34L488 709Q488 709 503 703T534 686T549 662Q549 658 533 628T491 550T431 442T362 320T293 199T233 94T190 20T174 -8ZM501 -9Q455 -9 426 5T382 60T367 178Q367 272 404
316T509 360Q555 360 584 345T627 290T642 180Q642 80 607 36T501 -9ZM507 76Q515 76 522 83T534 112T539 178Q539 220 537 241T528 269T508 276Q493 276 484 258T474 178Q474 133 477 112T488 83T507 76Z" />
<glyph unicode="&amp;" horiz-adv-x="489" d="M411 -10Q401 -10 376 12T318 74T249 164T177 269T113 379T67 482T50 568Q50 608 67 639T121 688T217 706Q286 706 329 692T372 654Q372 636 365 612T344 571Q313 594 287 600T231 607Q212 607 198 604T177 590T169
553Q169 529 185 488T229 396T291 294T360 197T428 120T484 79Q481 54 468 34T439 2T411 -10ZM203 -10Q149 -10 113 4T55 42T25 99T15 169Q15 222 38 264T96 336T168 383L215 307Q187 292 169 274T141 230T131 167Q131 151 135 138T147 115T168 100T197 95Q229
95 250 109T284 146T303 198T311 254T313 304Q313 356 309 390T298 448T282 495Q298 500 324 501T373 503T406 504Q426 504 441 504T472 501Q472 501 473 489T475 463Q475 442 469 427T432 411H411Q416 396 418 383T421 350T422 291Q422 259 417 219T399 139T360
65T297 11T203 -10Z" />
<glyph unicode="&apos;" horiz-adv-x="157" d="M45 583Q45 583 42 602T36 650T29 708T25 758T28 781Q35 786 54 786T96 786T132 783Q131 761 129 729T122 665T114 611T106 586Q106 586 91 585T61 584T45 583Z" />
<glyph unicode="(" horiz-adv-x="290" d="M211 -193Q205 -193 188 -176T149 -122T107 -25T73 120T59 318Q59 420 72 499T106 635T147 729T186 784T208 802Q236 802 249 787T271 731Q248 696 230 654T200 560T181 450T174 323Q174 247 181 180T201 56T232 -42T271
-108Q264 -147 252 -170T211 -193Z" />
<glyph unicode=")" horiz-adv-x="290" d="M79 -193Q50 -193 39 -170T19 -108Q42 -76 60 -35T90 59T109 178T116 323Q116 383 111 441T94 552T64 651T19 731Q27 772 40 787T82 802Q87 802 104 785T142 733T184 640T217 503T231 318Q231 215 218 133T184 -10T141
-112T102 -173T79 -193Z" />
<glyph unicode="*" horiz-adv-x="469" d="M149 253Q137 235 119 242T83 270T56 308L178 419Q190 430 201 429T227 409L149 253ZM165 455L11 490Q10 524 22 545T50 575T79 577L198 491Q199 466 189 458T165 455ZM317 238L249 393Q244 407 248 415T279 433L397 309Q410
293 398 278T361 252T317 238ZM218 509L188 664Q186 685 205 690T250 692T294 678L267 529Q264 514 256 508T218 509ZM287 450Q270 473 272 483T288 501L428 588Q445 573 453 549T458 503T438 478L287 450Z" />
<glyph unicode="+" horiz-adv-x="400" d="M25 234Q25 284 27 307T45 330H375Q375 281 373 258T355 234H25ZM152 107V437Q152 452 175 454T248 457V127Q248 112 225 110T152 107Z" />
<glyph unicode="," horiz-adv-x="188" d="M72 -96Q57 -96 46 -91T30 -67Q47 -38 50 -25T57 8Q41 18 35 33T29 68Q29 95 47 114T93 133Q128 133 146 114T164 60Q164 29 153 1T126 -49T95 -83T72 -96Z" />
<glyph unicode="-" horiz-adv-x="264" d="M30 234Q30 284 32 307T50 330H234Q234 281 232 258T214 234H30Z" />
<glyph unicode="." horiz-adv-x="188" d="M94 -7Q53 -7 38 11T23 64Q23 93 41 115T94 137Q135 137 150 117T165 64Q165 35 147 14T94 -7Z" />
<glyph unicode="/" horiz-adv-x="368" d="M10 -20L234 736Q238 749 245 755T276 763T358 765L134 6Q131 -6 124 -11T92 -18T10 -20Z" />
<glyph unicode="0" horiz-adv-x="400" d="M197 -9Q124 -9 86 27T34 132T20 296Q20 446 62 523T199 600Q295 600 337 532T380 333Q380 219 365 143T309 29T197 -9ZM201 91Q222 91 235 114T255 190T262 333Q262 413 251 457T205 502Q165 502 154 445T142 292Q142
217 146 173T162 110T201 91Z" />
<glyph unicode="1" horiz-adv-x="400" d="M22 0Q21 19 20 37T19 74Q19 82 23 87T37 95T61 101T97 104T146 105L155 486Q139 485 125 484T99 481T79 478T65 475T60 474Q51 490 47 506T43 543Q43 550 58 557T99 572T152 586T205 596T246 600Q253 600 262 599T275
594L263 105H319Q342 105 361 107T380 109Q380 45 377 23T355 0H22Z" />
<glyph unicode="2" horiz-adv-x="400" d="M24 0Q21 9 21 19T20 31Q20 58 25 74T46 120Q71 164 98 202T151 272T198 334T231 389T243 440Q243 457 236 469T216 487T184 493Q166 493 142 489T93 478T53 462Q43 484 41 507T39 544Q39 560 65 572T132 592T219 600Q276
600 309 584T357 536T372 459Q372 423 360 391T327 326T280 260T226 188T169 105H243Q274 105 299 106T343 110T370 114T380 116Q380 46 377 23T354 0H24Z" />
<glyph unicode="3" horiz-adv-x="400" d="M142 -100Q88 -100 64 -86T39 -46Q39 -17 44 2T53 36Q67 22 92 15T142 7Q178 7 201 24T236 72T247 145Q247 172 235 190T201 219T152 234T94 236L93 304Q156 329 186 366T217 440Q217 455 214 467T200 486T165 493Q136
493 104 485T47 462Q37 484 35 507T33 544Q33 567 81 583T207 600Q257 600 287 584T332 541T346 479Q346 437 333 403T297 344T249 299Q284 295 311 278T353 229T369 151Q369 61 338 6T256 -75T142 -100Z" />
<glyph unicode="4" horiz-adv-x="400" d="M207 0V102H54Q31 125 24 155T16 209Q16 218 26 246T55 315T94 398T138 482T178 551T209 589Q220 597 231 602T257 607Q278 607 294 603T322 592L319 206Q344 206 362 208T380 211Q380 211 383 202T385 173Q384 145 376
124T348 102H319V32Q319 16 314 10T286 2T207 0ZM111 206H207L222 453Q209 437 193 405T160 336T130 264T111 206Z" />
<glyph unicode="5" horiz-adv-x="400" d="M139 -100Q78 -100 53 -84T28 -58Q28 -26 30 -7T40 33Q56 18 77 11T125 4Q168 4 195 29T237 93T251 166Q251 203 246 228T228 267T189 288T122 295Q100 295 78 292T34 284L65 600H371Q371 560 368 539T352 509T315 501Q303
501 287 501T254 502T220 504T190 505T168 506T160 507L148 383Q156 385 167 386T191 387Q219 387 250 381T309 356T354 298T371 194Q371 105 344 39T265 -64T139 -100Z" />
<glyph unicode="6" horiz-adv-x="400" d="M194 -8Q134 -8 99 14T48 79T27 183T22 322Q22 433 38 506T85 623T156 685T247 703Q274 703 299 700T339 689T355 663Q355 649 353 628T344 584Q327 590 303 594T262 598Q212 598 181 568T137 468T130 278Q128 216 134
179T151 123T175 98T200 91Q223 91 239 110T263 159T272 224Q272 276 257 307T211 338Q183 338 158 319T102 252V346Q128 394 158 417T246 441Q306 441 344 397T382 247Q382 113 333 53T194 -8Z" />
<glyph unicode="7" horiz-adv-x="400" d="M191 -92Q144 -92 119 -90T85 -81T76 -61Q76 -15 87 44T116 169T158 297T205 414T250 506Q221 504 193 503T133 501T66 500Q54 500 48 515T39 553T36 600H396Q332 456 287 333T217 104T191 -92Z" />
<glyph unicode="8" horiz-adv-x="400" d="M208 -7Q139 -7 98 20T40 91T22 186Q22 230 36 267T74 333T131 382L202 418Q224 436 241 454T267 494T277 540Q277 551 273 561T261 581T241 595T214 601Q194 601 178 594T152 573T142 537Q142 515 148 501T163 476Q180
456 210 430T274 376T330 319Q357 288 369 255T382 183Q382 135 363 92T306 21T208 -7ZM200 100Q230 100 251 122T272 186Q272 221 263 238T243 267Q216 298 180 325T110 381T55 439Q43 456 36 480T29 530Q29 588 51 627T112 686T198 706Q238 706 271 698T329 671T367
621T381 544Q381 497 366 462T325 402T272 355L210 319Q187 302 168 284T137 245T126 194Q126 148 147 124T200 100Z" />
<glyph unicode="9" horiz-adv-x="400" d="M131 -104Q91 -104 63 -95T35 -61Q35 -47 38 -25T45 13Q60 9 78 6T116 2Q173 2 205 28T252 100T269 199T273 309Q273 367 270 405T260 467T240 500T208 510Q174 510 151 476T128 371Q128 319 143 288T189 257Q218 257
245 275T298 343V249Q272 201 242 178T154 154Q114 154 84 178T36 249T18 359Q18 491 67 550T206 609Q260 609 293 595T345 545T370 447T380 288Q378 90 322 -7T131 -104Z" />
<glyph unicode=":" horiz-adv-x="188" d="M95 314Q54 314 39 332T24 385Q24 414 42 436T95 458Q136 458 151 438T166 385Q166 356 148 335T95 314ZM95 -7Q54 -7 39 11T24 64Q24 93 42 115T95 137Q136 137 151 117T166 64Q166 35 148 14T95 -7Z" />
<glyph unicode=";" horiz-adv-x="188" d="M66 -96Q51 -96 40 -91T24 -67Q41 -38 44 -25T51 8Q35 18 29 33T23 68Q23 95 41 114T87 133Q122 133 140 114T158 60Q158 29 147 1T120 -49T89 -83T66 -96ZM90 314Q49 314 34 332T19 385Q19 414 37 436T90 458Q131 458
146 438T161 385Q161 356 143 335T90 314Z" />
<glyph unicode="&lt;" horiz-adv-x="400" d="M318 78Q308 78 287 86L51 191Q33 222 33 256Q33 275 41 291T68 316L326 440Q344 424 354 404T366 366Q366 342 347 334L178 252L368 164Q367 130 351 104T318 78Z" />
<glyph unicode="=" horiz-adv-x="400" d="M25 334Q25 384 27 407T45 430H375Q375 381 373 358T355 334H25ZM25 134Q25 184 27 207T45 230H375Q375 181 373 158T355 134H25Z" />
<glyph unicode="&gt;" horiz-adv-x="400" d="M79 63Q62 80 52 100T40 137Q40 162 58 170L228 252L38 340Q40 373 55 399T88 426Q98 426 119 418L355 313Q373 282 373 248Q373 229 365 213T337 188L79 63Z" />
<glyph unicode="?" horiz-adv-x="294" d="M81 222Q81 222 76 234T66 267T61 311T74 359Q91 393 107 418T135 463T155 502T162 543Q162 556 159 566T149 583T129 593T99 597Q65 597 48 587T31 576Q22 600 18 622T13 666Q13 681 34 690T86 705T145 710Q181 710 207
700T251 671T276 627T284 573Q284 526 274 493T247 433T213 384T180 333Q171 316 175 296T184 260T182 234Q176 227 158 224T118 220T81 222ZM131 -7Q90 -7 75 11T60 64Q60 93 78 115T131 137Q172 137 187 117T202 64Q202 35 184 14T131 -7Z" />
<glyph unicode="@" horiz-adv-x="719" d="M360 -191Q305 -191 257 -182T168 -146T100 -70T56 62T40 263Q40 371 64 449T132 579T240 655T381 680Q475 680 542 652T645 554T681 364Q681 268 671 203T644 98T606 37T563 9T520 1Q478 1 454 26T422 77L437 121Q451
112 470 105T506 98Q519 98 529 108T545 139T556 188T562 252T564 330Q564 427 549 481T494 558T380 580Q301 580 251 552T178 451T155 248Q155 174 161 119T182 25T218 -36T274 -70T351 -81Q398 -81 437 -78T513 -68T583 -49Q597 -69 605 -88T613 -125Q613 -146
583 -160T497 -183T360 -191ZM360 84Q369 84 373 88T380 106T383 147L385 246Q385 246 381 247T368 248Q357 248 350 240T340 212T337 155Q338 129 338 114T344 91T360 84ZM355 1Q319 1 291 11T247 55T230 159Q230 224 244 260T282 310T331 324Q344 324 359 322T386
310Q386 310 386 329T387 368Q388 381 384 388T372 399T350 403Q322 403 302 398T259 379Q251 395 249 416T247 443Q248 458 256 466Q267 474 299 484T386 495Q439 495 467 472T493 382L490 198Q489 162 488 131T484 78Q483 59 475 46T465 30Q459 17 431 9T355
1Z" />
<glyph unicode="A" horiz-adv-x="437" d="M73 -2Q62 -2 42 -1T2 2L169 681Q173 702 214 702Q228 702 242 701T267 698L434 18Q436 8 427 3T384 -2Q373 -2 357 -2T319 0L246 353Q241 380 236 411T227 477T220 542Q217 511 213 477T204 412T193 353L124 19Q122 9
115 4T73 -2ZM116 159V260H342V159H116Z" />
<glyph unicode="B" horiz-adv-x="358" d="M30 0V680Q30 690 36 695T58 700H156Q188 700 218 694T272 670T310 623T325 543Q325 492 311 458T276 405T233 383Q251 381 271 375T308 353T337 310T348 238Q348 198 342 163T321 98T285 46T233 12T161 0H30ZM144 97H164Q176
97 185 106T200 132T210 173T214 228Q214 262 211 282T202 312T187 326T166 330H144V97ZM144 424H163Q175 424 183 436T196 469T201 519Q201 554 197 572T184 596T167 602H144V424Z" />
<glyph unicode="C" horiz-adv-x="325" d="M187 -10Q153 -10 126 -2T79 28T46 87T27 184T20 327Q20 425 32 493T64 603T111 669T165 701T220 710Q263 710 283 702T309 680T315 651Q315 631 310 614T299 583Q293 588 285 591T268 597T247 600Q230 600 214 594T184
570T160 523T144 447T138 336Q138 271 142 228T156 161T180 126T216 115Q239 115 259 119T294 130Q300 117 304 100T309 64Q309 41 295 24T253 -1T187 -10Z" />
<glyph unicode="D" horiz-adv-x="360" d="M30 0V680Q30 690 36 695T58 700H154Q204 700 241 687T302 639T338 543T350 385Q350 285 339 212T305 92T246 23T159 0H30ZM142 106H162Q174 106 184 116T203 156T216 244T221 397Q221 464 217 504T205 564T186 591T161
598H142V106Z" />
<glyph unicode="E" horiz-adv-x="300" d="M30 0V680Q30 680 33 690T50 700H290Q290 655 289 634T284 607T270 600H142V100H283Q283 53 282 32T277 6T263 0H30ZM38 328V430H263Q263 367 261 348T244 328H38Z" />
<glyph unicode="F" horiz-adv-x="295" d="M30 0V680Q30 680 33 690T50 700H290Q290 655 289 635T284 610T270 605H142V20Q142 20 141 10T124 0H30ZM38 328V430H263Q263 367 261 348T244 328H38Z" />
<glyph unicode="G" horiz-adv-x="369" d="M210 -10Q153 -10 116 5T58 58T29 161T20 327Q20 448 35 523T78 639T147 695T240 710Q294 710 321 693T349 652Q349 633 345 614T335 580Q324 589 304 594T264 600Q226 600 202 586T165 540T146 459T141 336Q141 260 144
213T156 142T178 109T212 100Q222 100 228 101T238 105T244 109V333H198V405Q198 425 222 425H349L348 21Q332 11 311 4T264 -6T210 -10Z" />
<glyph unicode="H" horiz-adv-x="382" d="M239 0V680Q239 690 243 694T271 699T351 700V20Q351 10 347 6T320 1T239 0ZM31 0V680Q31 690 35 694T62 699T143 700V20Q143 10 139 6T112 1T31 0ZM84 320V425H289L290 320H84Z" />
<glyph unicode="I" horiz-adv-x="174" d="M30 0V651Q30 676 35 686T64 698T144 700V20Q144 10 139 6T111 1T30 0Z" />
<glyph unicode="J" horiz-adv-x="301" d="M121 -9Q73 -9 50 0T18 25T10 58Q10 80 15 94T25 119Q39 109 61 100T105 90Q127 90 138 97T153 125T157 183V651Q157 676 162 686T190 698T271 700V161Q271 119 263 87T237 34T191 2T121 -9Z" />
<glyph unicode="K" horiz-adv-x="388" d="M318 -2Q299 -2 279 -1T238 1Q238 47 236 91T227 175T207 248T172 306Q161 319 147 326T118 335V352L251 693Q271 698 290 699T323 701Q382 701 371 673L257 401Q312 350 338 252T365 21Q365 8 357 3T318 -2ZM28 0V680Q28
690 33 694T61 699T142 700V20Q142 10 138 6T109 1T28 0Z" />
<glyph unicode="L" horiz-adv-x="298" d="M30 0V672Q30 686 35 692T63 699T142 700V105H283V20Q283 8 278 4T263 0H30Z" />
<glyph unicode="M" horiz-adv-x="477" d="M208 167L161 307Q157 319 151 343T136 399T120 461T106 520T95 563T91 580L135 700L214 454Q222 431 227 412T235 380T239 360T241 353Q241 353 242 360T246 380T253 412T265 452L333 680L385 578Q385 578 381 562T371
520T356 462T340 400T325 345T313 307L265 174Q263 167 254 167H208ZM30 0V680Q30 695 36 697T50 700H135L141 510L109 489Q109 489 111 479T116 449T122 402T129 341T135 270T138 191L141 20Q141 10 135 6T106 1T30 0ZM332 0L337 190Q338 231 340 268T346 339T353
400T359 447T364 478T366 489L333 512V680Q337 691 340 695T353 700Q400 700 419 700T443 700T447 700V20Q447 10 442 6T414 1T332 0Z" />
<glyph unicode="N" horiz-adv-x="430" d="M293 0L187 268Q178 292 169 323T151 388T135 454T123 512T114 553T111 569L45 635L50 700H139L243 437Q253 411 263 379T281 313T297 248T309 192T317 153T320 138L388 65L380 0H293ZM30 0V680Q30 700 50 700L142 680L125
511Q128 490 130 468T134 424T137 380T140 337T141 297T142 260V20Q142 10 137 6T109 1T30 0ZM380 0L288 20L303 212Q300 235 298 256T295 298T292 337T290 374T289 411T288 447V680Q288 690 293 694T321 699T400 700V20Q400 0 380 0Z" />
<glyph unicode="O" horiz-adv-x="409" d="M200 -10Q151 -10 117 5T61 61T30 172T20 354Q20 490 41 567T104 677T211 710Q260 710 294 694T349 638T379 530T389 358Q389 217 369 137T308 24T200 -10ZM206 106Q231 106 243 131T261 211T266 354Q266 441 263 494T247
570T209 594Q185 594 172 569T154 485T148 329Q148 251 152 202T168 130T206 106Z" />
<glyph unicode="P" horiz-adv-x="349" d="M63 270Q46 270 43 276T40 298V680Q40 680 41 690T58 700H144Q207 700 250 683T316 621T339 494Q339 426 323 383T279 315T218 280T149 270H63ZM30 0V680Q30 691 33 695T50 700H122Q137 700 139 690T142 680V20Q142 10
137 6T109 1T30 0ZM142 373H162Q178 373 189 383T206 423T213 508Q213 540 209 561T195 592T169 603H142V373Z" />
<glyph unicode="Q" horiz-adv-x="409" d="M320 -142Q259 -142 223 -107T166 5L295 35Q299 -9 309 -29T343 -50Q354 -50 370 -47T403 -33Q411 -45 414 -63T418 -92Q418 -113 400 -124T359 -138T320 -142ZM200 -10Q151 -10 117 5T61 61T30 172T20 354Q20 490 41
567T104 677T211 710Q260 710 294 694T349 638T379 530T389 358Q389 217 369 137T308 24T200 -10ZM206 106Q231 106 243 131T261 211T266 354Q266 441 263 494T247 570T209 594Q185 594 172 569T154 485T148 329Q148 251 152 202T168 130T206 106Z" />
<glyph unicode="R" horiz-adv-x="365" d="M63 270Q46 270 43 276T40 298V680Q40 680 41 690T58 700H144Q207 700 250 683T316 621T339 494Q339 426 323 383T279 315T218 280T149 270H63ZM30 0V680Q30 680 32 690T50 700H122Q137 700 139 690T142 680V20Q142 10
137 6T109 1T30 0ZM297 -3Q284 -3 267 -2T231 0Q229 88 216 145T187 235T158 281T145 295Q145 295 142 302T152 316L215 352Q231 352 236 341Q236 341 253 325T292 271T333 172T355 22Q355 8 347 3T297 -3ZM142 373H162Q178 373 189 383T206 420T213 500Q213 536
209 559T195 592T169 603H142V373Z" />
<glyph unicode="S" horiz-adv-x="344" d="M147 -10Q80 -10 48 10T16 57Q16 74 22 96T41 138Q57 124 82 115T134 105Q175 105 191 126T207 182Q207 208 198 231T162 288L71 410Q37 456 26 490T15 557Q15 625 60 667T193 710Q269 710 299 695T329 654Q329 640 323
624T303 591Q295 597 270 604T216 611Q179 611 158 599T137 560Q137 537 145 518T173 471L269 348Q305 302 317 265T329 185Q329 135 314 91T259 18T147 -10Z" />
<glyph unicode="T" horiz-adv-x="380" d="M132 0V690Q132 690 134 690T152 690H224Q239 690 241 690T244 690V20Q244 10 239 6T211 1T132 0ZM10 595V680Q10 700 30 700H370V615Q370 603 366 599T350 595H10Z" />
<glyph unicode="U" horiz-adv-x="411" d="M209 -10Q150 -10 115 6T61 49T36 113T30 192V679Q30 690 35 694T64 699T146 700V188Q146 164 148 146T158 116T177 99T209 93Q226 93 241 96T267 105V679Q267 690 272 694T300 699T381 700V28Q363 16 318 3T209 -10Z" />
<glyph unicode="V" horiz-adv-x="420" d="M185 -6Q157 -6 142 11T122 53Q113 93 102 153T77 283T52 421T29 546T13 637T7 671Q4 688 7 694T32 700H126L176 374Q184 325 190 272T203 172T213 92Q216 125 221 172T232 272T246 374L289 670Q291 686 296 693T316 700H415L283
0Q258 -3 238 -4T185 -6Z" />
<glyph unicode="W" horiz-adv-x="668" d="M446 -6Q420 -6 406 10T386 57L364 165Q357 203 351 251T339 349T330 441T324 508T322 534L287 641Q284 658 290 664T312 670H385L436 374Q445 325 450 278T459 189T465 114H473Q475 169 481 240T497 374L539 670Q541
686 546 693T566 700H663L544 0Q522 -2 508 -3T481 -5T446 -6ZM166 -5Q144 -5 131 13T112 57Q104 98 93 158T70 288T47 424T27 548T13 637T7 671Q4 688 8 694T32 700H126L175 374Q183 325 188 278T197 189T203 114H211Q213 182 219 248T236 374L279 640Q281 656
285 663T306 670H355Q376 670 378 663T379 642L341 532Q341 532 339 507T333 440T324 349T312 252T300 165L273 0Q244 -3 223 -4T166 -5Z" />
<glyph unicode="X" horiz-adv-x="421" d="M7 0L153 388L214 429Q214 429 218 454T232 518T252 595L278 682Q281 691 286 694T316 699T397 700L263 307L217 295Q217 295 210 267T192 198T165 116L127 14Q119 0 104 0H7ZM274 0L236 116Q223 156 212 197T194 267T187
295L150 335L34 681Q31 691 37 694T73 699T168 700L197 595Q208 556 216 518T229 455T234 429L274 407L409 16Q413 9 411 5T398 0H274Z" />
<glyph unicode="Y" horiz-adv-x="368" d="M220 217H153L6 683Q3 692 8 695T41 699T134 700L163 569Q167 551 171 526T180 472T187 419T191 377Q193 394 196 419T203 472T211 526T220 570L244 680Q247 690 253 694T283 699T364 700L220 217ZM131 0V365H243V20Q243
10 239 6T211 1T131 0Z" />
<glyph unicode="Z" horiz-adv-x="376" d="M28 0Q22 7 18 17T13 43Q13 54 15 65T22 90L228 601H72Q62 601 49 600T25 596V679Q25 700 46 700H346Q351 693 353 686T356 665Q356 642 346 617L135 99H290Q309 99 326 101T357 109V20Q357 11 353 6T337 0H28Z" />
<glyph unicode="[" horiz-adv-x="350" d="M87 -200V789Q87 803 90 809T112 818T173 821H342Q342 775 341 753T333 723T310 716H201V-95H342Q342 -147 341 -169T332 -195T310 -200H87Z" />
<glyph unicode="\" horiz-adv-x="360" d="M236 -30L12 736Q8 749 12 755T41 763T123 765L348 -4Q352 -16 347 -21T318 -28T236 -30Z" />
<glyph unicode="]" horiz-adv-x="350" d="M8 -200Q8 -154 9 -132T18 -102T40 -95H149V717H8Q8 769 10 791T18 817T40 822H263V-168Q263 -181 260 -188T238 -197T177 -200H8Z" />
<glyph unicode="^" horiz-adv-x="430" d="M88 202Q64 202 51 220T37 259L223 412L373 286Q384 278 388 269T392 251Q392 232 377 217T339 199L210 267L117 212Q106 206 100 204T88 202Z" />
<glyph unicode="_" horiz-adv-x="370" d="M10 -127Q10 -77 12 -54T30 -31H360Q360 -80 358 -103T340 -127H10Z" />
<glyph unicode="`" horiz-adv-x="280" d="M188 539Q184 539 166 550T124 577T79 609T49 636Q54 664 67 691T100 718Q105 718 120 707T157 677T198 638T231 600Q231 600 227 585T213 555T188 539Z" />
<glyph unicode="a" horiz-adv-x="338" d="M162 -10Q134 -10 109 -5T63 16T32 63T20 146Q20 197 29 229T55 280T92 304T135 311Q146 311 166 308T199 296Q199 296 199 307T199 335T199 365Q199 378 195 386T182 398T157 402Q129 402 96 396T37 381Q28 398 25 416T22
446Q22 455 25 465T36 481Q47 489 86 499T185 510Q254 510 282 483T311 388V341Q311 284 311 224T310 112T306 22Q281 7 244 -1T162 -10ZM170 82Q177 82 185 84T197 92Q198 103 198 125T199 174T199 221Q194 226 187 227T173 229Q165 229 159 226T148 213T141 189T138
149Q138 131 139 119T144 98T154 86T170 82Z" />
<glyph unicode="b" horiz-adv-x="365" d="M152 -10Q112 -10 82 -2T35 20V685Q35 710 43 720T76 733T147 735V481Q163 495 184 502T232 510Q272 510 296 491T333 427T345 307Q345 222 334 165T302 73T257 20T205 -4T152 -10ZM169 88Q176 88 184 95T200 124T213
184T218 287Q218 333 214 360T201 398T180 410Q172 410 164 407T147 396V96Q151 92 156 90T169 88Z" />
<glyph unicode="c" horiz-adv-x="291" d="M168 -10Q129 -10 101 0T55 37T29 112T20 239Q20 329 36 383T78 464T135 501T198 510Q235 510 258 497T281 459Q281 448 279 433T271 399Q259 404 242 408T208 412Q195 412 182 407T159 384T143 332T137 241Q137 198 140
169T150 122T171 97T204 89Q220 89 238 93T268 103Q273 84 275 71T277 44Q277 19 247 5T168 -10Z" />
<glyph unicode="d" horiz-adv-x="358" d="M182 -10Q150 -10 121 -3T69 29T33 100T20 227Q20 330 38 392T87 482T157 510Q177 510 192 505T216 492V686Q216 711 224 721T257 733T328 735V20Q303 9 267 0T182 -10ZM183 89Q193 89 201 91T216 99V409Q212 412 206
413T195 414Q188 414 180 410T163 390T151 338T146 241Q146 196 148 167T154 120T166 96T183 89Z" />
<glyph unicode="e" horiz-adv-x="344" d="M175 -10Q141 -10 113 0T64 37T32 109T20 226Q20 317 34 373T72 458T129 499T196 510Q256 510 290 472T324 347Q324 311 321 273T310 205Q281 199 243 196T169 192T110 190T86 190L88 279Q88 279 102 279T138 278T179
280T210 287Q213 296 214 311T215 339Q215 387 208 400T181 413Q168 413 159 402T145 369T138 313T136 233Q136 198 138 173T147 131T167 107T202 99Q229 99 255 106T308 127Q313 112 315 91T317 52Q317 32 298 18T246 -3T175 -10Z" />
<glyph unicode="f" horiz-adv-x="262" d="M70 0V407H10Q10 451 11 470T18 495T37 500H70V557Q70 615 85 651T126 705T183 731T244 738Q291 738 317 725T344 686Q344 673 341 656T333 625Q314 634 296 636T265 638Q246 638 231 635T205 625T188 604T182 569V500H254Q254
457 253 437T247 412T233 407H182V20Q182 20 180 10T162 0H70Z" />
<glyph unicode="g" horiz-adv-x="382" d="M172 -196Q104 -196 69 -179T22 -135T10 -84Q10 -47 30 -18T83 33T156 66L191 34Q174 27 159 14T135 -17T126 -55Q126 -67 131 -76T149 -89T184 -94Q221 -94 234 -73T248 -34Q248 -17 242 -7T211 10T134 20Q99 23 74 30T36
52T24 86Q25 103 33 120T60 156T108 196L174 175Q174 175 167 167T152 148T144 127Q144 115 169 114T230 106Q273 99 302 85T346 47T362 -18Q362 -67 343 -107T282 -172T172 -196ZM183 154Q125 154 91 176T42 236T27 324Q27 395 47 435T106 493T196 510Q209 510
224 507T253 498L274 449Q306 433 325 402T345 317Q345 263 329 227T277 173T183 154ZM188 237Q203 237 212 245T227 278T232 347Q232 394 223 412T191 431Q178 431 168 422T152 391T146 329Q146 294 150 274T163 245T188 237ZM342 405Q327 405 304 412T257 430T218
447T202 455L208 501H365Q370 492 373 479T377 446Q377 424 367 415T342 405Z" />
<glyph unicode="h" horiz-adv-x="361" d="M33 0V686Q33 711 42 721T75 733T145 735V475Q162 492 188 501T240 510Q279 510 298 496T325 453T332 381V20Q332 10 326 6T295 1T216 0V346Q216 369 212 388T184 407Q175 407 166 405T145 395V20Q145 10 141 6T113 1T33 0Z" />
<glyph unicode="i" horiz-adv-x="180" d="M33 0V451Q33 476 42 486T76 498T147 500V20Q147 10 143 6T114 1T33 0ZM343 545Q318 545 304 562T289 626Q289 661 304 682T350 704Q381 704 392 688T403 631Q403 591 388 568T343 545Z" />
<glyph unicode="j" horiz-adv-x="187" d="M14 -197Q-44 -197 -67 -183T-90 -137Q-90 -122 -87 -107T-75 -82Q-58 -89 -40 -92T-3 -95Q15 -95 24 -89T37 -66T41 -21V451Q41 476 50 486T83 498T153 500V-36Q153 -78 142 -114T101 -174T14 -197ZM347 545Q322 545
308 562T293 626Q293 661 308 682T354 704Q385 704 396 688T407 631Q407 591 392 568T347 545Z" />
<glyph unicode="k" horiz-adv-x="361" d="M33 0V686Q33 711 42 721T75 733T146 735V482Q166 493 193 501T252 510Q286 510 304 497T328 465T335 425Q335 397 330 373T315 330T296 297T277 274Q303 255 318 226T341 161T349 85Q349 69 349 52T346 17Q345 9 339
5T307 1T218 0Q220 26 221 51T223 101Q223 130 221 153T213 192T198 216T173 221Q165 220 159 217T150 210T146 207V20Q146 10 142 6T114 1T33 0ZM146 282Q167 294 181 308T202 340T209 383Q209 410 189 410Q176 410 166 403T146 382V282Z" />
<glyph unicode="l" horiz-adv-x="178" d="M33 0V686Q33 711 42 721T75 733T145 735V20Q145 10 141 6T113 1T33 0Z" />
<glyph unicode="m" horiz-adv-x="530" d="M33 0V477Q62 491 102 500T187 510Q247 510 276 480T314 392T323 255V20Q323 10 318 6T289 1T211 0V375Q211 392 209 400T201 411T183 414Q173 414 163 411T145 402V20Q145 10 140 6T111 1T33 0ZM211 0V421Q211 446 239
466T308 498T388 510Q439 510 463 494T494 448T501 374V20Q501 10 496 6T467 1T389 0V371Q389 394 383 403T360 412Q350 412 341 410T323 403V20Q323 10 319 6T292 1T211 0Z" />
<glyph unicode="n" horiz-adv-x="361" d="M33 0V477Q49 485 76 492T133 505T188 510Q239 510 270 499T317 459T332 381V20Q332 10 327 6T297 1T216 0V346Q216 385 210 399T183 414Q173 414 163 411T145 402V20Q145 10 140 6T112 1T33 0Z" />
<glyph unicode="o" horiz-adv-x="362" d="M178 -10Q138 -10 108 -1T59 36T30 115T20 251Q20 387 63 448T186 510Q240 510 274 489T325 412T342 255Q342 110 301 50T178 -10ZM181 83Q191 83 199 93T213 139T219 252Q219 324 216 359T205 406T182 417Q171 417 162
406T148 359T143 252Q143 194 145 160T152 109T164 88T181 83Z" />
<glyph unicode="p" horiz-adv-x="362" d="M87 -197Q58 -197 46 -187T33 -148V471Q62 489 101 499T181 510Q229 510 265 494T321 433T342 307Q342 227 336 171T317 80T289 25T253 -2T211 -10Q189 -10 173 -6T145 9V-188Q132 -192 117 -194T87 -197ZM173 89Q181
89 188 95T202 123T212 186T216 300Q216 348 212 372T199 405T175 414Q159 414 145 402V107Q152 97 158 93T173 89Z" />
<glyph unicode="q" horiz-adv-x="363" d="M267 -198Q254 -198 242 -197T219 -194V24Q209 7 190 -1T144 -10Q120 -10 98 -1T58 31T30 99T20 215Q20 304 37 361T83 451T150 497T228 510Q262 510 286 503T333 480V-149Q333 -181 321 -189T267 -198ZM186 87Q199 87
207 97T219 122V404Q215 409 210 411T197 414Q182 414 171 398T154 340T148 220Q148 180 150 154T157 113T169 93T186 87Z" />
<glyph unicode="r" horiz-adv-x="249" d="M33 0V465Q59 483 94 496T172 510Q213 510 226 498T239 460Q239 450 237 432T228 395Q218 400 209 401T191 403Q182 403 170 399T148 387L147 20Q147 10 143 6T114 1T33 0Z" />
<glyph unicode="s" horiz-adv-x="318" d="M136 -10Q88 -10 54 2T19 49Q19 61 23 77T37 112Q58 101 80 96T124 90Q150 90 162 101T175 132Q175 143 172 157T153 188L66 280Q40 308 29 336T18 386Q18 421 33 449T85 493T183 510Q239 510 265 500T298 475T306 447Q306
418 284 393Q264 404 243 409T198 414Q174 414 163 406T151 384Q151 376 156 365T180 334L254 259Q284 225 294 199T304 134Q304 67 259 29T136 -10Z" />
<glyph unicode="t" horiz-adv-x="284" d="M173 -10Q129 -10 107 6T77 55T69 131V405H9Q9 448 10 468T16 494T32 500H69V645Q69 663 78 670T112 678T181 680V500H263Q263 457 262 437T257 411T241 405H181V133Q181 122 182 111T188 92T205 85Q219 85 231 88T257
98Q259 88 261 75T264 44Q264 20 249 9T213 -6T173 -10Z" />
<glyph unicode="u" horiz-adv-x="358" d="M180 -10Q120 -10 88 8T42 59T29 140V480Q29 490 33 494T62 499T145 500V133Q145 118 147 108T157 92T178 86Q188 86 198 89T216 99V480Q216 490 220 494T248 499T328 500V28Q304 14 265 2T180 -10Z" />
<glyph unicode="v" horiz-adv-x="330" d="M142 -5Q120 -5 110 9T95 45L10 467Q7 484 11 490T41 498T132 500L150 356Q154 324 157 283T164 204T168 142T170 117H172Q172 117 173 141T177 204T183 283T191 356L205 478Q207 489 212 493T241 499T323 500L223 0Q206
-3 182 -4T142 -5Z" />
<glyph unicode="w" horiz-adv-x="526" d="M348 -5Q331 -5 314 6T291 45L281 111Q277 139 274 176T269 251T266 321T265 374T264 394L249 451Q248 460 254 475T270 490H326L360 267Q363 251 365 227T368 178T371 138T372 122H380Q382 157 384 199T390 284T398 360L413
478Q415 489 420 493T448 499T521 500Q521 500 516 473T503 402T484 304T464 197T444 99T429 27T421 0Q421 0 404 -2T348 -5ZM139 -5Q119 -5 109 9T93 44Q86 74 77 117T59 209T40 306T23 393T11 455T6 479Q5 490 11 494T45 499T130 500L149 360Q154 324 158 283T164
205T168 145T170 122H178Q179 137 180 161T183 214T189 267L216 468Q218 482 224 486T252 490H282Q295 490 292 483T282 467T274 451V396Q274 396 274 376T272 323T268 252T262 176T254 111L236 0Q236 0 220 -1T182 -3T139 -5Z" />
<glyph unicode="x" horiz-adv-x="379" d="M7 0L133 278L191 319Q191 319 197 340T214 391T233 445L247 481Q251 491 258 494T289 499T369 500L235 217L192 205Q192 205 187 189T175 148T158 96T141 48L131 21Q127 11 118 7T83 1T7 0ZM242 0L222 48Q213 69 204
95T186 147T172 188T166 205L142 220L22 482Q18 491 21 494T51 499T140 500L162 445Q171 422 181 393T197 341T204 319L245 297L367 24Q373 12 369 7T338 1T242 0Z" />
<glyph unicode="y" horiz-adv-x="340" d="M81 -193Q26 -193 8 -179T-11 -143Q-11 -128 -8 -111T3 -82Q12 -89 30 -94T71 -99Q89 -99 102 -82T121 -16L12 471Q9 486 12 492T39 499T122 500L151 327Q157 294 161 259T169 194T174 144T176 125Q176 125 177 144T182
193T189 258T197 327L216 469Q218 485 224 491T254 498T335 500L223 -23Q209 -88 192 -125T148 -178T81 -193Z" />
<glyph unicode="z" horiz-adv-x="300" d="M29 0Q29 0 20 13T10 55Q10 66 12 75T19 95L165 407H84Q66 407 49 406T18 402Q15 419 15 432T14 453Q14 478 22 489T49 500H279Q279 500 284 492T290 467Q290 460 288 447T277 414L141 103H196Q230 103 250 107T284 117Q286
108 287 93T288 69Q287 35 279 18T243 0H29Z" />
<glyph unicode="{" horiz-adv-x="266" d="M207 -149Q131 -149 102 -111T73 -13Q73 37 80 78T87 170Q87 208 76 224T37 246Q32 257 30 268T28 290Q28 327 48 342Q59 350 67 358T81 384T87 432Q87 482 80 533T73 624Q73 665 93 691T148 730T228 744Q239 728 244
710T250 674Q250 641 233 636Q216 634 206 624T192 598T188 563Q188 528 192 484T196 394Q196 348 184 329T149 299Q172 289 184 269T196 203Q196 159 192 118T188 42Q188 13 193 -5T211 -33T242 -46Q244 -59 244 -69T245 -88Q245 -116 235 -132T207 -149Z" />
<glyph unicode="|" horiz-adv-x="288" d="M87 -200V786Q87 800 92 806T120 813T201 815V-174Q201 -187 197 -192T168 -199T87 -200Z" />
<glyph unicode="}" horiz-adv-x="266" d="M38 -149Q28 -134 23 -115T17 -79Q17 -46 34 -42Q51 -39 61 -29T75 -4T79 31Q79 67 75 110T71 200Q71 247 83 266T117 296Q95 306 83 326T71 392Q71 436 75 476T79 553Q79 582 73 600T56 627T25 641Q23 654 22 664T21
683Q21 710 31 727T60 744Q135 744 164 706T193 608Q193 558 186 517T179 424Q179 386 190 370T229 348Q234 337 236 326T239 305Q239 286 233 273T218 253Q208 245 199 236T185 211T179 162Q179 112 186 61T193 -30Q193 -70 173 -96T118 -136T38 -149Z" />
<glyph unicode="~" horiz-adv-x="400" d="M257 199Q232 199 216 204T189 217T167 230T138 236Q120 236 106 227T78 210T51 202Q34 204 22 223T9 273Q19 288 40 302T89 326T148 336Q174 336 189 331T214 318T236 306T267 300Q284 300 300 309T328 328Q354 343 373
322T393 263Q384 250 364 235T317 210T257 199Z" />
<glyph unicode="&#xa0;" horiz-adv-x="140" />
<glyph unicode="&#xa1;" horiz-adv-x="202" d="M26 -197L51 212Q53 237 62 248T95 261T163 264L184 -164Q185 -179 174 -186T129 -195T26 -197ZM108 363Q68 363 53 383T37 436Q37 465 55 486T108 507Q149 507 164 489T179 436Q179 407 161 385T108 363Z" />
<glyph unicode="&#xa2;" horiz-adv-x="400" d="M240 -10Q200 -10 169 -5T117 24T84 96T73 232Q73 321 88 375T130 459T187 499T250 510Q280 510 306 499T333 473Q333 472 333 458T330 426T323 394Q311 399 294 403T260 407Q247 407 234 402T209 381T191 331T184
239Q184 188 187 159T199 116T220 97T252 93Q266 93 287 97T320 107Q325 92 327 71T329 38Q329 26 316 15T283 -3T240 -10ZM162 -125V19H264V-84Q264 -111 238 -118T162 -125ZM189 493V566Q189 593 215 602T291 611V493H189Z" />
<glyph unicode="&#xa3;" horiz-adv-x="346" d="M78 0Q74 46 71 102T67 214T65 316Q65 390 75 442T106 529T157 579T228 595Q253 595 275 590T313 571T328 534Q328 516 325 502T315 468Q302 475 287 478T257 482Q239 482 225 475T200 452T183 407T177 334Q177 258
178 209T184 110L309 102Q314 88 315 75T317 51Q317 35 312 24T297 6T270 0H78ZM15 275Q15 325 17 348T35 371H287Q287 322 285 299T267 275H15Z" />
<glyph unicode="&#xa4;" horiz-adv-x="600" d="M302 38Q193 38 146 91T98 266Q98 394 145 448T304 503Q411 503 456 452T502 282Q502 152 456 95T302 38ZM75 -31Q40 4 26 22T21 51L145 175L196 90L75 -31ZM140 354L7 487Q42 522 60 537T89 541L190 440L140 354ZM511
-17L410 84L465 165L593 37Q558 2 540 -12T511 -17ZM306 131Q353 131 373 166T394 282Q394 353 375 382T309 412Q255 412 233 378T210 263Q210 192 232 162T306 131ZM465 359L413 443L525 555Q560 520 575 502T579 473L465 359Z" />
<glyph unicode="&#xa5;" horiz-adv-x="400" d="M168 217L21 683Q19 692 23 695T56 699T149 700L177 569Q181 551 185 530T193 487T199 445T203 407Q205 424 207 444T214 487T222 530T231 570L259 680Q262 690 268 694T298 699T379 700L235 217H168ZM23 172Q23
222 30 243T64 264H167V172H23ZM146 0V365H258V20Q258 10 254 6T226 1T146 0ZM23 342Q23 392 30 413T64 434H153V342H23ZM238 172V264H382Q382 215 375 194T341 172H238ZM239 342V434H382Q382 385 375 364T341 342H239Z" />
<glyph unicode="&#xa6;" horiz-adv-x="229" d="M112 -198Q103 -198 87 -197T58 -192V182Q58 208 70 217T117 227Q130 227 144 225T170 219V-158Q170 -183 160 -190T112 -198ZM112 321Q103 321 87 322T58 327V699Q58 725 70 734T117 744Q130 744 144 742T170 736V361Q170
336 160 329T112 321Z" />
<glyph unicode="&#xa7;" horiz-adv-x="325" d="M191 190L165 293Q179 297 187 309T196 329Q196 343 190 355T173 383Q162 400 143 414T102 446T63 490Q46 516 40 536T33 577Q33 618 54 646T112 688T190 703Q239 703 262 689T292 660Q296 649 296 637Q296 619 291
601T277 568Q264 576 248 579T212 583Q187 583 175 575T162 552Q162 542 168 532T186 505Q196 493 211 476T243 440T272 401Q286 381 292 363T299 318Q299 298 289 273T256 225T191 190ZM132 -4Q83 -4 60 10T30 40Q27 45 27 51T26 62Q26 99 45 131Q59 124 74 120T109
116Q135 116 147 125T159 147Q159 158 154 168T135 194Q125 206 110 223T78 259T49 298Q36 318 29 337T22 381Q22 402 32 427T65 475T129 509L156 406Q141 402 134 391T126 371Q126 357 132 345T149 316Q160 299 179 285T220 253T259 209Q276 184 282 164T289 122Q289
81 268 53T210 11T132 -4Z" />
<glyph unicode="&#xa8;" horiz-adv-x="280" d="M72 549Q49 549 35 565T21 626Q21 659 35 679T79 700Q108 700 119 685T130 631Q130 592 116 571T72 549ZM202 549Q178 549 164 565T150 626Q150 659 164 679T209 700Q238 700 248 685T259 631Q259 592 245 571T202 549Z" />
<glyph unicode="&#xa9;" horiz-adv-x="480" d="M236 319Q184 319 146 333T82 374T44 444T32 542Q32 654 88 706T246 759Q316 759 360 738T426 670T448 545Q448 438 395 379T236 319ZM249 425Q218 425 199 432T172 463T163 534Q163 576 171 601T193 640T223 657T254
662Q268 662 282 657T297 645Q297 640 296 628T292 607Q285 609 276 610T259 612Q250 612 242 608T228 587T222 532Q222 505 225 493T236 478T255 475Q263 475 272 477T289 481Q293 473 294 461T295 445Q295 436 281 431T249 425ZM238 397Q270 397 299 410T346
455T365 545Q365 591 353 622T314 670T244 687Q187 687 151 657T114 545Q114 490 128 458T170 411T238 397Z" />
<glyph unicode="&#xaa;" horiz-adv-x="308" d="M143 288Q113 288 87 296T46 331T30 413Q30 458 42 486T76 526T130 539Q144 539 159 537T186 530V563Q186 584 180 594T162 609T136 613Q114 613 92 608T49 594Q39 608 37 633T44 672Q57 690 87 700T169 710Q204
710 228 698T265 662T278 602V317Q254 306 218 297T143 288ZM156 365Q164 365 173 367T186 373V456Q181 459 173 460T160 462Q148 462 139 459T124 445T118 412Q118 395 123 385T136 370T156 365Z" />
<glyph unicode="&#xab;" horiz-adv-x="414" d="M148 0Q148 0 138 15T111 54T77 108T43 165T17 216T6 250Q6 261 16 283T43 334T77 391T111 445T137 485T148 500Q170 500 184 486T206 458T214 443Q214 430 207 411T187 371T162 328T137 289T118 261T110 250Q110
250 117 240T137 214T162 177T188 135T207 95T215 63Q215 63 207 47T185 16T148 0ZM329 27Q329 27 319 40T293 75T260 123T226 174T200 219T190 251Q190 262 200 282T226 327T259 379T293 427T319 462T329 476Q350 476 364 463T385 437T393 423Q393 409 383 387T359
342T330 298T305 264T295 251Q295 251 305 239T329 208T359 166T384 122T394 86Q394 86 387 71T365 42T329 27Z" />
<glyph unicode="&#xac;" horiz-adv-x="400" d="M43 217Q34 243 34 269Q34 291 42 306T68 322H360V217H43ZM309 102Q287 102 271 110T255 136V322H360V111Q336 102 309 102Z" />
<glyph unicode="&#xad;" horiz-adv-x="264" d="M30 234Q30 284 32 307T50 330H234Q234 281 232 258T214 234H30Z" />
<glyph unicode="&#xae;" horiz-adv-x="480" d="M236 319Q184 319 146 333T82 374T44 444T32 542Q32 654 88 706T246 759Q316 759 360 738T426 670T448 545Q448 438 395 379T236 319ZM182 423V657Q182 657 183 660T190 663H219Q225 663 226 660T227 657V431Q227
425 222 424T182 423ZM263 423Q262 471 254 491T237 515T228 520Q228 520 227 523T231 528L257 543Q260 543 262 542T265 538Q265 538 276 532T299 503T313 432Q313 426 310 424T292 421Q287 421 279 421T263 423ZM238 397Q270 397 299 410T346 455T365 545Q365
591 353 622T314 670T244 687Q187 687 151 657T114 545Q114 490 128 458T170 411T238 397ZM235 552Q244 552 250 560T256 595Q256 609 252 616T237 624Q233 624 230 624T227 624V553Q227 553 228 553T231 553T235 552ZM196 510Q189 510 188 512T186 521V657Q186
657 186 660T193 663H227Q265 663 285 646T306 590Q306 549 283 530T230 510H196Z" />
<glyph unicode="&#xaf;" horiz-adv-x="280" d="M7 567Q2 581 1 593T-1 617Q-1 641 11 656T44 672H270Q276 660 278 648T281 625Q281 600 270 584T239 567H7Z" />
<glyph unicode="&#xb0;" horiz-adv-x="343" d="M169 541Q118 541 93 562T67 645Q67 700 95 725T175 750Q227 750 251 729T276 647Q276 593 249 567T169 541ZM171 608Q186 608 196 616T206 646Q206 665 199 673T175 682Q158 682 149 674T139 645Q139 626 147 617T171 608Z" />
<glyph unicode="&#xb1;" horiz-adv-x="402" d="M27 300Q27 350 29 373T47 396H377Q377 347 375 324T357 300H27ZM154 173V503Q154 518 177 520T250 523V193Q250 178 227 176T154 173ZM25 17Q25 67 27 90T45 113H375Q375 64 373 41T355 17H25Z" />
<glyph unicode="&#xb2;" horiz-adv-x="363" d="M35 289Q31 299 29 307T27 323Q27 339 30 353T42 377Q69 411 94 437T141 485T174 525T187 561Q187 571 183 578T169 591T140 596Q118 596 97 588T53 566Q42 591 39 604T35 633Q35 658 61 675T125 701T197 710Q246
710 274 698T314 663T326 606Q326 573 313 543T279 487T237 437T198 394H330Q336 364 336 346Q336 289 301 289H35Z" />
<glyph unicode="&#xb3;" horiz-adv-x="348" d="M146 279Q106 279 81 286T43 301Q25 313 25 343Q25 380 50 403Q63 396 86 389T137 381Q169 381 188 390T207 420Q207 435 197 444T163 456Q153 458 137 458T105 458Q102 462 97 481T92 509Q92 523 99 532T125 541Q157
541 186 538T236 527Q277 516 300 489T323 428Q323 375 299 342T234 294T146 279ZM250 505L148 529Q168 543 176 555T185 580Q185 589 181 596T166 607T139 611Q115 611 93 604T52 585Q33 606 31 634T42 675Q59 690 97 700T191 710Q232 710 258 700T298 669T311
621Q311 592 297 562T250 505Z" />
<glyph unicode="&#xb4;" horiz-adv-x="282" d="M93 549Q79 549 69 564T55 595T50 610Q63 628 83 648T124 686T161 716T181 728Q200 728 214 701T232 646Q223 635 202 619T158 587T116 560T93 549Z" />
<glyph unicode="&#xb5;" horiz-adv-x="366" d="M79 -196Q66 -196 53 -194T29 -189V457Q29 482 42 494T86 506Q98 506 113 505T141 499V133Q141 114 151 105T181 95Q195 95 205 97T224 104V457Q224 482 234 494T279 506Q290 506 307 505T336 499V24Q308 11 267
1T178 -10Q153 -10 141 2V-150Q141 -177 122 -186T79 -196Z" />
<glyph unicode="&#xb6;" horiz-adv-x="534" d="M291 -3Q271 -3 256 -1T233 5V202Q220 196 203 194T165 191Q136 191 110 202T64 238T33 307T22 417Q22 529 47 592T118 683T219 710Q257 710 291 701T345 681V37Q345 11 328 4T291 -3ZM195 279Q203 279 214 281T232
288V609Q228 611 221 613T202 616Q171 616 155 571T138 430Q138 366 146 334T168 290T195 279ZM446 -4Q437 -4 421 -3T392 2V646Q392 671 404 681T451 691Q464 691 478 689T505 682V36Q505 11 494 4T446 -4Z" />
<glyph unicode="&#xb7;" horiz-adv-x="235" d="M118 197Q77 197 62 215T47 268Q47 297 65 319T118 341Q159 341 174 321T189 268Q189 239 171 218T118 197Z" />
<glyph unicode="&#xb8;" horiz-adv-x="280" d="M125 -222Q100 -222 83 -214T65 -206Q65 -206 67 -195T74 -171T81 -155Q86 -150 98 -159T127 -168Q144 -168 149 -159T155 -136Q155 -120 149 -112T129 -104Q106 -104 95 -107T84 -110L103 2H159L148 -58Q148 -58
147 -58T164 -57Q184 -57 199 -73T215 -128Q215 -153 205 -174T174 -209T125 -222Z" />
<glyph unicode="&#xb9;" horiz-adv-x="351" d="M31 289Q27 305 26 317T25 337Q25 364 32 379T62 394H132V587L42 571Q35 583 32 597T28 624Q28 645 38 657T63 675Q86 684 115 692T172 705T214 710Q220 710 231 709T246 706V394H321Q323 381 324 369T326 345Q326
314 319 302T293 289H31Z" />
<glyph unicode="&#xba;" horiz-adv-x="326" d="M159 289Q116 289 87 307T42 372T27 499Q27 610 64 660T168 710Q213 710 242 693T285 630T299 502Q299 393 263 341T159 289ZM160 379Q182 379 194 403T206 497Q206 544 202 569T190 603T167 612Q145 612 133 588T120
495Q120 448 124 423T138 388T160 379Z" />
<glyph unicode="&#xbb;" horiz-adv-x="414" d="M266 0Q266 0 256 3T233 14T209 34T199 63Q199 76 206 95T226 135T251 176T277 213T296 240T304 250Q304 250 297 260T277 288T252 327T227 370T208 411T200 443Q200 458 210 468T233 486T256 496T266 500Q266 500
276 485T303 446T337 392T371 334T397 284T408 250Q408 239 398 216T371 165T337 108T303 55T277 15T266 0ZM80 23Q80 23 65 29T35 50T20 86Q20 102 30 123T54 166T83 208T108 238T118 250Q121 250 112 263T88 296T58 340T32 386T21 423Q21 443 35 455T65 474T80
480Q80 480 90 467T117 431T151 382T185 329T211 282T222 250Q222 239 212 218T185 171T151 119T117 72T91 37T80 23Z" />
<glyph unicode="&#xbc;" horiz-adv-x="926" d="M31 289Q27 305 26 317T25 337Q25 364 32 379T62 394H132V587L42 571Q35 583 32 597T28 624Q28 645 38 657T63 675Q86 684 115 692T172 705T214 710Q220 710 231 709T246 706V394H321Q323 381 324 369T326 345Q326
314 319 302T293 289H31ZM356 -10Q340 -10 318 -1T276 27L537 683Q540 694 548 702T576 710Q593 710 613 702T653 673L389 11Q387 4 379 -3T356 -10ZM792 -7Q772 -7 746 -1V65H593Q583 76 578 91T573 123Q573 140 579 158Q587 187 601 217T632 278T668 333T702
376Q728 405 753 413T804 421Q815 421 828 419T850 415V171H897Q901 161 903 149T906 120Q906 94 896 80T871 65H850V25Q850 -7 792 -7ZM672 163H750L756 300Q742 291 729 275T705 240T685 200T672 163Z" />
<glyph unicode="&#xbd;" horiz-adv-x="909" d="M31 289Q27 305 26 317T25 337Q25 364 32 379T62 394H132V587L42 571Q35 583 32 597T28 624Q28 645 38 657T63 675Q86 684 115 692T172 705T214 710Q220 710 231 709T246 706V394H321Q323 381 324 369T326 345Q326
314 319 302T293 289H31ZM356 -10Q340 -10 318 -1T276 27L537 683Q540 694 548 702T576 710Q593 710 613 702T653 673L389 11Q387 4 379 -3T356 -10ZM581 0Q577 10 575 18T573 34Q573 50 576 64T588 88Q615 122 640 148T687 196T720 236T733 272Q733 282 729 289T715
302T686 307Q664 307 643 299T599 277Q588 302 585 315T581 344Q581 369 607 386T671 412T743 421Q792 421 820 409T860 374T872 317Q872 284 859 254T825 198T783 148T744 105H876Q882 75 882 57Q882 0 847 0H581Z" />
<glyph unicode="&#xbe;" horiz-adv-x="923" d="M146 279Q106 279 81 286T43 301Q25 313 25 343Q25 380 50 403Q63 396 86 389T137 381Q169 381 188 390T207 420Q207 435 197 444T163 456Q153 458 137 458T105 458Q102 462 97 481T92 509Q92 523 99 532T125 541Q157
541 186 538T236 527Q277 516 300 489T323 428Q323 375 299 342T234 294T146 279ZM250 505L148 529Q168 543 176 555T185 580Q185 589 181 596T166 607T139 611Q115 611 93 604T52 585Q33 606 31 634T42 675Q59 690 97 700T191 710Q232 710 258 700T298 669T311
621Q311 592 297 562T250 505ZM353 -10Q337 -10 315 -1T273 27L534 683Q537 694 545 702T573 710Q590 710 610 702T650 673L386 11Q384 4 376 -3T353 -10ZM789 -7Q769 -7 743 -1V65H590Q580 76 575 91T570 123Q570 140 576 158Q584 187 598 217T629 278T665 333T699
376Q725 405 750 413T801 421Q812 421 825 419T847 415V171H894Q898 161 900 149T903 120Q903 94 893 80T868 65H847V25Q847 -7 789 -7ZM669 163H747L753 300Q739 291 726 275T702 240T682 200T669 163Z" />
<glyph unicode="&#xbf;" horiz-adv-x="312" d="M153 -196Q117 -196 91 -186T47 -157T22 -113T14 -59Q14 -12 24 21T51 81T85 130T118 181Q127 198 123 218T114 255T116 280Q123 288 141 291T180 294T217 292Q217 292 222 280T232 247T237 203T224 155Q207 121
191 96T163 51T143 12T136 -29Q136 -42 139 -52T149 -69T169 -79T199 -83Q234 -83 250 -73T267 -62Q276 -86 280 -107T285 -152Q285 -166 264 -176T213 -191T153 -196ZM167 362Q127 362 112 382T96 435Q96 464 114 485T167 506Q208 506 223 488T238 435Q238 406
220 384T167 362Z" />
<glyph unicode="&#xc0;" horiz-adv-x="437" d="M73 -2Q62 -2 42 -1T2 2L169 681Q173 702 214 702Q228 702 242 701T267 698L434 18Q436 8 427 3T384 -2Q373 -2 357 -2T319 0L246 353Q241 380 236 411T227 477T220 542Q217 511 213 477T204 412T193 353L124 19Q122
9 115 4T73 -2ZM116 159V260H342V159H116ZM277 739Q273 739 255 750T213 777T168 809T138 836Q143 864 156 891T189 918Q194 918 209 907T246 877T287 838T320 800Q320 800 316 785T302 755T277 739Z" />
<glyph unicode="&#xc1;" horiz-adv-x="437" d="M73 -2Q62 -2 42 -1T2 2L169 681Q173 702 214 702Q228 702 242 701T267 698L434 18Q436 8 427 3T384 -2Q373 -2 357 -2T319 0L246 353Q241 380 236 411T227 477T220 542Q217 511 213 477T204 412T193 353L124 19Q122
9 115 4T73 -2ZM116 159V260H342V159H116ZM181 749Q167 749 157 764T143 795T138 810Q151 828 171 848T212 886T249 916T269 928Q288 928 302 901T320 846Q311 835 290 819T246 787T204 760T181 749Z" />
<glyph unicode="&#xc2;" horiz-adv-x="437" d="M73 -2Q62 -2 42 -1T2 2L169 681Q173 702 214 702Q228 702 242 701T267 698L434 18Q436 8 427 3T384 -2Q373 -2 357 -2T319 0L246 353Q241 380 236 411T227 477T220 542Q217 511 213 477T204 412T193 353L124 19Q122
9 115 4T73 -2ZM116 159V260H342V159H116ZM276 750Q276 750 271 755T257 769T240 791T223 818Q223 818 217 808T201 785T181 761T161 751Q135 751 117 757T85 780L202 914Q213 917 224 917Q232 917 240 914T255 903Q255 903 270 888T304 850T338 808T353 777Q353
761 329 756T276 750Z" />
<glyph unicode="&#xc3;" horiz-adv-x="437" d="M73 -2Q62 -2 42 -1T2 2L169 681Q173 702 214 702Q228 702 242 701T267 698L434 18Q436 8 427 3T384 -2Q373 -2 357 -2T319 0L246 353Q241 380 236 411T227 477T220 542Q217 511 213 477T204 412T193 353L124 19Q122
9 115 4T73 -2ZM116 159V260H342V159H116ZM253 745Q234 745 225 751T209 766T196 780T174 787Q159 787 150 780T134 764T120 756Q105 756 93 770T74 797T67 811Q94 855 130 874T193 894Q208 894 218 888T235 873T252 858T275 851Q297 851 306 859T320 874T335 882Q346
882 354 867T366 836T371 820Q371 820 362 809T336 783T298 757T253 745Z" />
<glyph unicode="&#xc4;" horiz-adv-x="437" d="M73 -2Q62 -2 42 -1T2 2L169 681Q173 702 214 702Q228 702 242 701T267 698L434 18Q436 8 427 3T384 -2Q373 -2 357 -2T319 0L246 353Q241 380 236 411T227 477T220 542Q217 511 213 477T204 412T193 353L124 19Q122
9 115 4T73 -2ZM116 159V260H342V159H116ZM151 749Q128 749 114 765T100 826Q100 859 114 879T158 900Q187 900 198 885T209 831Q209 792 195 771T151 749ZM281 749Q257 749 243 765T229 826Q229 859 243 879T288 900Q317 900 327 885T338 831Q338 792 324 771T281
749Z" />
<glyph unicode="&#xc5;" horiz-adv-x="437" d="M73 -2Q62 -2 42 -1T2 2L169 681Q173 702 214 702Q228 702 242 701T267 698L434 18Q436 8 427 3T384 -2Q373 -2 357 -2T319 0L246 353Q241 380 236 411T227 477T220 542Q217 511 213 477T204 412T193 353L124 19Q122
9 115 4T73 -2ZM116 159V260H342V159H116ZM217 729Q166 729 141 750T115 833Q115 888 143 913T223 938Q275 938 299 917T324 835Q324 781 297 755T217 729ZM219 801Q232 801 240 808T249 834Q249 850 243 857T223 865Q208 865 200 858T192 833Q192 817 199 809T219
801Z" />
<glyph unicode="&#xc6;" horiz-adv-x="582" d="M87 -2Q76 -2 56 -1T16 2L268 681Q272 692 281 696T304 700H333Q331 676 323 634T303 542T277 441T249 350L138 19Q134 9 125 4T87 -2ZM117 159L159 260H344V159H117ZM312 0V680Q312 680 315 690T332 700H572Q572
655 571 634T566 607T552 600H424V100H565Q565 53 564 32T559 6T545 0H312ZM320 328V430H545Q545 367 543 348T526 328H320Z" />
<glyph unicode="&#xc7;" horiz-adv-x="325" d="M187 -10Q153 -10 126 -2T79 28T46 87T27 184T20 327Q20 425 32 493T64 603T111 669T165 701T220 710Q263 710 283 702T309 680T315 651Q315 631 310 614T299 583Q293 588 285 591T268 597T247 600Q230 600 214 594T184
570T160 523T144 447T138 336Q138 271 142 228T156 161T180 126T216 115Q239 115 259 119T294 130Q300 117 304 100T309 64Q309 41 295 24T253 -1T187 -10ZM181 -222Q156 -222 139 -214T121 -206Q121 -206 123 -195T130 -171T137 -155Q142 -150 154 -159T183 -168Q200
-168 205 -159T211 -136Q211 -120 205 -112T185 -104Q162 -104 151 -107T140 -110L159 2H215L204 -58Q204 -58 203 -58T220 -57Q240 -57 255 -73T271 -128Q271 -153 261 -174T230 -209T181 -222Z" />
<glyph unicode="&#xc8;" horiz-adv-x="300" d="M30 0V680Q30 680 33 690T50 700H290Q290 655 289 634T284 607T270 600H142V100H283Q283 53 282 32T277 6T263 0H30ZM38 328V430H263Q263 367 261 348T244 328H38ZM213 739Q209 739 191 750T149 777T104 809T74 836Q79
864 92 891T125 918Q130 918 145 907T182 877T223 838T256 800Q256 800 252 785T238 755T213 739Z" />
<glyph unicode="&#xc9;" horiz-adv-x="300" d="M30 0V680Q30 680 33 690T50 700H290Q290 655 289 634T284 607T270 600H142V100H283Q283 53 282 32T277 6T263 0H30ZM38 328V430H263Q263 367 261 348T244 328H38ZM117 749Q103 749 93 764T79 795T74 810Q87 828
107 848T148 886T185 916T205 928Q224 928 238 901T256 846Q247 835 226 819T182 787T140 760T117 749Z" />
<glyph unicode="&#xca;" horiz-adv-x="300" d="M30 0V680Q30 680 33 690T50 700H290Q290 655 289 634T284 607T270 600H142V100H283Q283 53 282 32T277 6T263 0H30ZM38 328V430H263Q263 367 261 348T244 328H38ZM212 750Q212 750 207 755T193 769T176 791T159
818Q159 818 153 808T137 785T117 761T97 751Q71 751 53 757T21 780L138 914Q149 917 160 917Q168 917 176 914T191 903Q191 903 206 888T240 850T274 808T289 777Q289 761 265 756T212 750Z" />
<glyph unicode="&#xcb;" horiz-adv-x="300" d="M30 0V680Q30 680 33 690T50 700H290Q290 655 289 634T284 607T270 600H142V100H283Q283 53 282 32T277 6T263 0H30ZM38 328V430H263Q263 367 261 348T244 328H38ZM87 749Q64 749 50 765T36 826Q36 859 50 879T94
900Q123 900 134 885T145 831Q145 792 131 771T87 749ZM217 749Q193 749 179 765T165 826Q165 859 179 879T224 900Q253 900 263 885T274 831Q274 792 260 771T217 749Z" />
<glyph unicode="&#xcc;" horiz-adv-x="174" d="M30 0V651Q30 676 35 686T64 698T144 700V20Q144 10 139 6T111 1T30 0ZM145 739Q141 739 123 750T81 777T36 809T6 836Q11 864 24 891T57 918Q62 918 77 907T114 877T155 838T188 800Q188 800 184 785T170 755T145 739Z" />
<glyph unicode="&#xcd;" horiz-adv-x="174" d="M30 0V651Q30 676 35 686T64 698T144 700V20Q144 10 139 6T111 1T30 0ZM49 749Q35 749 25 764T11 795T6 810Q19 828 39 848T80 886T117 916T137 928Q156 928 170 901T188 846Q179 835 158 819T114 787T72 760T49 749Z" />
<glyph unicode="&#xce;" horiz-adv-x="174" d="M30 0V651Q30 676 35 686T64 698T144 700V20Q144 10 139 6T111 1T30 0ZM144 750Q144 750 139 755T125 769T108 791T91 818Q91 818 85 808T69 785T49 761T29 751Q3 751 -15 757T-47 780L70 914Q81 917 92 917Q100
917 108 914T123 903Q123 903 138 888T172 850T206 808T221 777Q221 761 197 756T144 750Z" />
<glyph unicode="&#xcf;" horiz-adv-x="174" d="M30 0V651Q30 676 35 686T64 698T144 700V20Q144 10 139 6T111 1T30 0ZM19 749Q-4 749 -18 765T-32 826Q-32 859 -18 879T26 900Q55 900 66 885T77 831Q77 792 63 771T19 749ZM149 749Q125 749 111 765T97 826Q97
859 111 879T156 900Q185 900 195 885T206 831Q206 792 192 771T149 749Z" />
<glyph unicode="&#xd0;" horiz-adv-x="360" d="M30 0V680Q30 690 36 695T58 700H154Q204 700 241 687T302 641T338 548T350 397Q350 292 339 217T305 94T246 23T159 0H30ZM-4 315Q-4 365 -2 388T16 411H192Q192 362 190 339T172 315H-4ZM142 107L162 106Q174 106
184 116T203 156T216 244T221 397Q221 464 217 504T205 564T186 591T161 598H142V107Z" />
<glyph unicode="&#xd1;" horiz-adv-x="430" d="M293 0L187 268Q178 292 169 323T151 388T135 454T123 512T114 553T111 569L45 635L50 700H139L243 437Q253 411 263 379T281 313T297 248T309 192T317 153T320 138L388 65L380 0H293ZM30 0V680Q30 700 50 700L142
680L125 511Q128 490 130 468T134 424T137 380T140 337T141 297T142 260V20Q142 10 137 6T109 1T30 0ZM380 0L288 20L303 212Q300 235 298 256T295 298T292 337T290 374T289 411T288 447V680Q288 690 293 694T321 699T400 700V20Q400 0 380 0ZM249 745Q230 745
221 751T205 766T192 780T170 787Q155 787 146 780T130 764T116 756Q101 756 89 770T70 797T63 811Q90 855 126 874T189 894Q204 894 214 888T231 873T248 858T271 851Q293 851 302 859T316 874T331 882Q342 882 350 867T362 836T367 820Q367 820 358 809T332 783T294
757T249 745Z" />
<glyph unicode="&#xd2;" horiz-adv-x="409" d="M200 -10Q151 -10 117 5T61 61T30 172T20 354Q20 490 41 567T104 677T211 710Q260 710 294 694T349 638T379 530T389 358Q389 217 369 137T308 24T200 -10ZM206 106Q231 106 243 131T261 211T266 354Q266 441 263
494T247 570T209 594Q185 594 172 569T154 485T148 329Q148 251 152 202T168 130T206 106ZM263 739Q259 739 241 750T199 777T154 809T124 836Q129 864 142 891T175 918Q180 918 195 907T232 877T273 838T306 800Q306 800 302 785T288 755T263 739Z" />
<glyph unicode="&#xd3;" horiz-adv-x="409" d="M200 -10Q151 -10 117 5T61 61T30 172T20 354Q20 490 41 567T104 677T211 710Q260 710 294 694T349 638T379 530T389 358Q389 217 369 137T308 24T200 -10ZM206 106Q231 106 243 131T261 211T266 354Q266 441 263
494T247 570T209 594Q185 594 172 569T154 485T148 329Q148 251 152 202T168 130T206 106ZM167 749Q153 749 143 764T129 795T124 810Q137 828 157 848T198 886T235 916T255 928Q274 928 288 901T306 846Q297 835 276 819T232 787T190 760T167 749Z" />
<glyph unicode="&#xd4;" horiz-adv-x="409" d="M200 -10Q151 -10 117 5T61 61T30 172T20 354Q20 490 41 567T104 677T211 710Q260 710 294 694T349 638T379 530T389 358Q389 217 369 137T308 24T200 -10ZM206 106Q231 106 243 131T261 211T266 354Q266 441 263
494T247 570T209 594Q185 594 172 569T154 485T148 329Q148 251 152 202T168 130T206 106ZM262 750Q262 750 257 755T243 769T226 791T209 818Q209 818 203 808T187 785T167 761T147 751Q121 751 103 757T71 780L188 914Q199 917 210 917Q218 917 226 914T241 903Q241
903 256 888T290 850T324 808T339 777Q339 761 315 756T262 750Z" />
<glyph unicode="&#xd5;" horiz-adv-x="409" d="M200 -10Q151 -10 117 5T61 61T30 172T20 354Q20 490 41 567T104 677T211 710Q260 710 294 694T349 638T379 530T389 358Q389 217 369 137T308 24T200 -10ZM206 106Q231 106 243 131T261 211T266 354Q266 441 263
494T247 570T209 594Q185 594 172 569T154 485T148 329Q148 251 152 202T168 130T206 106ZM239 745Q220 745 211 751T195 766T182 780T160 787Q145 787 136 780T120 764T106 756Q91 756 79 770T60 797T53 811Q80 855 116 874T179 894Q194 894 204 888T221 873T238
858T261 851Q283 851 292 859T306 874T321 882Q332 882 340 867T352 836T357 820Q357 820 348 809T322 783T284 757T239 745Z" />
<glyph unicode="&#xd6;" horiz-adv-x="409" d="M200 -10Q151 -10 117 5T61 61T30 172T20 354Q20 490 41 567T104 677T211 710Q260 710 294 694T349 638T379 530T389 358Q389 217 369 137T308 24T200 -10ZM206 106Q231 106 243 131T261 211T266 354Q266 441 263
494T247 570T209 594Q185 594 172 569T154 485T148 329Q148 251 152 202T168 130T206 106ZM137 749Q114 749 100 765T86 826Q86 859 100 879T144 900Q173 900 184 885T195 831Q195 792 181 771T137 749ZM267 749Q243 749 229 765T215 826Q215 859 229 879T274 900Q303
900 313 885T324 831Q324 792 310 771T267 749Z" />
<glyph unicode="&#xd7;" horiz-adv-x="400" d="M266 138L52 372Q87 407 105 422T134 426L348 192Q313 158 295 143T266 138ZM134 138Q124 128 106 143T52 192L266 426Q277 437 295 422T348 372L134 138Z" />
<glyph unicode="&#xd8;" horiz-adv-x="419" d="M213 710Q278 710 318 680T376 573T394 358Q394 217 374 137T313 24T205 -10Q156 -10 122 5T66 61T35 172T25 354Q25 490 45 567T107 677T213 710ZM212 595Q189 595 176 570T158 486T153 329Q153 251 154 202T166
130T201 106Q215 106 228 113T250 143T265 217T271 354Q271 441 268 494T252 571T212 595ZM48 156Q48 156 62 152T92 140T109 118Q110 111 104 92T90 50T73 9T63 -15Q45 -16 22 -7T-4 18Q-5 22 3 43T21 91T40 136T48 156ZM99 106L270 635Q270 635 283 632T310 622T327
601Q328 597 319 567T295 490T262 387T226 277T193 177T169 104T159 76Q159 76 145 79T116 89T99 106ZM375 508Q375 508 364 511T337 521T309 535T295 550Q295 550 300 565T314 603T331 650T347 693T359 719Q359 719 375 716T408 706T428 686Q429 681 424 661T411
616T395 566T381 525T375 508Z" />
<glyph unicode="&#xd9;" horiz-adv-x="411" d="M209 -10Q150 -10 115 6T61 49T36 113T30 192V679Q30 690 35 694T64 699T146 700V188Q146 164 148 146T158 116T177 99T209 93Q226 93 241 96T267 105V679Q267 690 272 694T300 699T381 700V28Q363 16 318 3T209
-10ZM264 739Q260 739 242 750T200 777T155 809T125 836Q130 864 143 891T176 918Q181 918 196 907T233 877T274 838T307 800Q307 800 303 785T289 755T264 739Z" />
<glyph unicode="&#xda;" horiz-adv-x="411" d="M209 -10Q150 -10 115 6T61 49T36 113T30 192V679Q30 690 35 694T64 699T146 700V188Q146 164 148 146T158 116T177 99T209 93Q226 93 241 96T267 105V679Q267 690 272 694T300 699T381 700V28Q363 16 318 3T209
-10ZM168 749Q154 749 144 764T130 795T125 810Q138 828 158 848T199 886T236 916T256 928Q275 928 289 901T307 846Q298 835 277 819T233 787T191 760T168 749Z" />
<glyph unicode="&#xdb;" horiz-adv-x="411" d="M209 -10Q150 -10 115 6T61 49T36 113T30 192V679Q30 690 35 694T64 699T146 700V188Q146 164 148 146T158 116T177 99T209 93Q226 93 241 96T267 105V679Q267 690 272 694T300 699T381 700V28Q363 16 318 3T209
-10ZM263 750Q263 750 258 755T244 769T227 791T210 818Q210 818 204 808T188 785T168 761T148 751Q122 751 104 757T72 780L189 914Q200 917 211 917Q219 917 227 914T242 903Q242 903 257 888T291 850T325 808T340 777Q340 761 316 756T263 750Z" />
<glyph unicode="&#xdc;" horiz-adv-x="411" d="M209 -10Q150 -10 115 6T61 49T36 113T30 192V679Q30 690 35 694T64 699T146 700V188Q146 164 148 146T158 116T177 99T209 93Q226 93 241 96T267 105V679Q267 690 272 694T300 699T381 700V28Q363 16 318 3T209
-10ZM138 749Q115 749 101 765T87 826Q87 859 101 879T145 900Q174 900 185 885T196 831Q196 792 182 771T138 749ZM268 749Q244 749 230 765T216 826Q216 859 230 879T275 900Q304 900 314 885T325 831Q325 792 311 771T268 749Z" />
<glyph unicode="&#xdd;" horiz-adv-x="368" d="M220 217H153L6 683Q3 692 8 695T41 699T134 700L163 569Q167 551 171 526T180 472T187 419T191 377Q193 394 196 419T203 472T211 526T220 570L244 680Q247 690 253 694T283 699T364 700L220 217ZM131 0V365H243V20Q243
10 239 6T211 1T131 0ZM146 749Q132 749 122 764T108 795T103 810Q116 828 136 848T177 886T214 916T234 928Q253 928 267 901T285 846Q276 835 255 819T211 787T169 760T146 749Z" />
<glyph unicode="&#xde;" horiz-adv-x="349" d="M30 0V673Q30 691 44 695T106 700H142V570H144Q207 570 250 553T316 491T339 364Q339 296 323 253T279 185T218 150T149 140H142V20Q142 10 136 6T107 1T30 0ZM162 243Q178 243 189 253T206 293T213 378Q213 410
209 431T195 462T169 473Q157 473 152 473T142 470V247Q142 247 147 245T162 243Z" />
<glyph unicode="&#xdf;" horiz-adv-x="458" d="M87 -10Q55 -10 41 -3T26 4Q26 4 33 28T40 98L36 550Q36 629 81 667T202 705Q257 705 296 694T361 662T397 616T409 559Q409 532 401 515T380 486T354 464T333 442T324 411Q324 394 337 375T369 334T409 283T442
220T455 141Q455 75 417 33T307 -9Q244 -9 215 6T186 39Q186 68 194 85T213 113Q213 113 231 102T278 91Q304 91 316 104T328 141Q328 167 315 192T283 241T245 292T213 346T200 405Q200 432 209 451T231 483T257 508T279 532T288 559Q288 573 279 582T252 596T208
601Q169 601 159 574T149 488L153 64Q153 24 141 7T87 -10Z" />
<glyph unicode="&#xe0;" horiz-adv-x="338" d="M162 -10Q134 -10 109 -5T63 16T32 63T20 146Q20 197 29 229T55 280T92 304T135 311Q146 311 166 308T199 296Q199 296 199 307T199 335T199 365Q199 378 195 386T182 398T157 402Q129 402 96 396T37 381Q28 398
25 416T22 446Q22 455 25 465T36 481Q47 489 86 499T185 510Q254 510 282 483T311 388V341Q311 284 311 224T310 112T306 22Q281 7 244 -1T162 -10ZM170 82Q177 82 185 84T197 92Q198 103 198 125T199 174T199 221Q194 226 187 227T173 229Q165 229 159 226T148
213T141 189T138 149Q138 131 139 119T144 98T154 86T170 82ZM227 539Q223 539 205 550T163 577T118 609T88 636Q93 664 106 691T139 718Q144 718 159 707T196 677T237 638T270 600Q270 600 266 585T252 555T227 539Z" />
<glyph unicode="&#xe1;" horiz-adv-x="338" d="M162 -10Q134 -10 109 -5T63 16T32 63T20 146Q20 197 29 229T55 280T92 304T135 311Q146 311 166 308T199 296Q199 296 199 307T199 335T199 365Q199 378 195 386T182 398T157 402Q129 402 96 396T37 381Q28 398
25 416T22 446Q22 455 25 465T36 481Q47 489 86 499T185 510Q254 510 282 483T311 388V341Q311 284 311 224T310 112T306 22Q281 7 244 -1T162 -10ZM170 82Q177 82 185 84T197 92Q198 103 198 125T199 174T199 221Q194 226 187 227T173 229Q165 229 159 226T148
213T141 189T138 149Q138 131 139 119T144 98T154 86T170 82ZM131 549Q117 549 107 564T93 595T88 610Q101 628 121 648T162 686T199 716T219 728Q238 728 252 701T270 646Q261 635 240 619T196 587T154 560T131 549Z" />
<glyph unicode="&#xe2;" horiz-adv-x="338" d="M162 -10Q134 -10 109 -5T63 16T32 63T20 146Q20 197 29 229T55 280T92 304T135 311Q146 311 166 308T199 296Q199 296 199 307T199 335T199 365Q199 378 195 386T182 398T157 402Q129 402 96 396T37 381Q28 398
25 416T22 446Q22 455 25 465T36 481Q47 489 86 499T185 510Q254 510 282 483T311 388V341Q311 284 311 224T310 112T306 22Q281 7 244 -1T162 -10ZM170 82Q177 82 185 84T197 92Q198 103 198 125T199 174T199 221Q194 226 187 227T173 229Q165 229 159 226T148
213T141 189T138 149Q138 131 139 119T144 98T154 86T170 82ZM226 550Q226 550 221 555T207 569T190 591T173 618Q173 618 167 608T151 585T131 561T111 551Q85 551 67 557T35 580L152 714Q163 717 174 717Q182 717 190 714T205 703Q205 703 220 688T254 650T288
608T303 577Q303 561 279 556T226 550Z" />
<glyph unicode="&#xe3;" horiz-adv-x="338" d="M162 -10Q134 -10 109 -5T63 16T32 63T20 146Q20 197 29 229T55 280T92 304T135 311Q146 311 166 308T199 296Q199 296 199 307T199 335T199 365Q199 378 195 386T182 398T157 402Q129 402 96 396T37 381Q28 398
25 416T22 446Q22 455 25 465T36 481Q47 489 86 499T185 510Q254 510 282 483T311 388V341Q311 284 311 224T310 112T306 22Q281 7 244 -1T162 -10ZM170 82Q177 82 185 84T197 92Q198 103 198 125T199 174T199 221Q194 226 187 227T173 229Q165 229 159 226T148
213T141 189T138 149Q138 131 139 119T144 98T154 86T170 82ZM203 545Q184 545 175 551T159 566T146 580T124 587Q109 587 100 580T84 564T70 556Q55 556 43 570T24 597T17 611Q44 655 80 674T143 694Q158 694 168 688T185 673T202 658T225 651Q247 651 256 659T270
674T285 682Q296 682 304 667T316 636T321 620Q321 620 312 609T286 583T248 557T203 545Z" />
<glyph unicode="&#xe4;" horiz-adv-x="338" d="M162 -10Q134 -10 109 -5T63 16T32 63T20 146Q20 197 29 229T55 280T92 304T135 311Q146 311 166 308T199 296Q199 296 199 307T199 335T199 365Q199 378 195 386T182 398T157 402Q129 402 96 396T37 381Q28 398
25 416T22 446Q22 455 25 465T36 481Q47 489 86 499T185 510Q254 510 282 483T311 388V341Q311 284 311 224T310 112T306 22Q281 7 244 -1T162 -10ZM170 82Q177 82 185 84T197 92Q198 103 198 125T199 174T199 221Q194 226 187 227T173 229Q165 229 159 226T148
213T141 189T138 149Q138 131 139 119T144 98T154 86T170 82ZM101 549Q78 549 64 565T50 626Q50 659 64 679T108 700Q137 700 148 685T159 631Q159 592 145 571T101 549ZM231 549Q207 549 193 565T179 626Q179 659 193 679T238 700Q267 700 277 685T288 631Q288
592 274 571T231 549Z" />
<glyph unicode="&#xe5;" horiz-adv-x="338" d="M162 -10Q134 -10 109 -5T63 16T32 63T20 146Q20 197 29 229T55 280T92 304T135 311Q146 311 166 308T199 296Q199 296 199 307T199 335T199 365Q199 378 195 386T182 398T157 402Q129 402 96 396T37 381Q28 398
25 416T22 446Q22 455 25 465T36 481Q47 489 86 499T185 510Q254 510 282 483T311 388V341Q311 284 311 224T310 112T306 22Q281 7 244 -1T162 -10ZM170 82Q177 82 185 84T197 92Q198 103 198 125T199 174T199 221Q194 226 187 227T173 229Q165 229 159 226T148
213T141 189T138 149Q138 131 139 119T144 98T154 86T170 82ZM167 529Q116 529 91 550T65 633Q65 688 93 713T173 738Q225 738 249 717T274 635Q274 581 247 555T167 529ZM169 601Q182 601 190 608T199 634Q199 650 193 657T173 665Q158 665 150 658T142 633Q142
617 149 609T169 601Z" />
<glyph unicode="&#xe6;" horiz-adv-x="536" d="M360 -9Q326 -9 301 -1T259 32T234 103T225 226Q225 320 236 376T267 462T317 500T381 510Q441 510 475 472T509 347Q509 311 506 273T495 205Q441 199 400 200T329 205T286 214T271 218L273 307Q273 307 283 303T311
295T351 288T395 287Q398 296 399 311T400 339Q400 387 393 400T366 413Q353 413 344 402T330 369T323 313T321 233Q321 188 323 162T331 122T347 104T375 99Q411 99 439 106T493 127Q498 112 500 82T502 28Q502 20 483 12T431 -3T360 -9ZM168 82Q173 82 184 84T199
92V242Q193 246 186 247T173 249Q165 249 159 244T148 228T141 200T138 159Q138 126 140 110T149 88T168 82ZM162 -10Q134 -10 109 -6T63 14T32 64T20 156Q20 207 29 241T55 295T90 323T131 331Q145 331 165 328T199 316Q199 316 199 324T199 346T199 374Q199 387
193 395T176 407T151 411Q119 411 91 405T37 385Q27 402 25 424T22 453Q22 462 26 470T34 482Q46 492 85 501T192 510Q250 510 270 483T291 388V20Q266 5 237 -2T162 -10Z" />
<glyph unicode="&#xe7;" horiz-adv-x="291" d="M168 -10Q129 -10 101 0T55 37T29 112T20 239Q20 329 36 383T78 464T135 501T198 510Q235 510 258 497T281 459Q281 448 279 433T271 399Q259 404 242 408T208 412Q195 412 182 407T159 384T143 332T137 241Q137
198 140 169T150 122T171 97T204 89Q220 89 238 93T268 103Q273 84 275 71T277 44Q277 19 247 5T168 -10ZM131 -222Q106 -222 89 -214T71 -206Q71 -206 73 -195T80 -171T87 -155Q92 -150 104 -159T133 -168Q150 -168 155 -159T161 -136Q161 -120 155 -112T135 -104Q112
-104 101 -107T90 -110L109 2H165L154 -58Q154 -58 153 -58T170 -57Q190 -57 205 -73T221 -128Q221 -153 211 -174T180 -209T131 -222Z" />
<glyph unicode="&#xe8;" horiz-adv-x="344" d="M175 -10Q141 -10 113 0T64 37T32 109T20 226Q20 317 34 373T72 458T129 499T196 510Q256 510 290 472T324 347Q324 311 321 273T310 205Q281 199 243 196T169 192T110 190T86 190L88 279Q88 279 102 279T138 278T179
280T210 287Q213 296 214 311T215 339Q215 387 208 400T181 413Q168 413 159 402T145 369T138 313T136 233Q136 198 138 173T147 131T167 107T202 99Q229 99 255 106T308 127Q313 112 315 91T317 52Q317 32 298 18T246 -3T175 -10ZM230 539Q226 539 208 550T166
577T121 609T91 636Q96 664 109 691T142 718Q147 718 162 707T199 677T240 638T273 600Q273 600 269 585T255 555T230 539Z" />
<glyph unicode="&#xe9;" horiz-adv-x="344" d="M175 -10Q141 -10 113 0T64 37T32 109T20 226Q20 317 34 373T72 458T129 499T196 510Q256 510 290 472T324 347Q324 311 321 273T310 205Q281 199 243 196T169 192T110 190T86 190L88 279Q88 279 102 279T138 278T179
280T210 287Q213 296 214 311T215 339Q215 387 208 400T181 413Q168 413 159 402T145 369T138 313T136 233Q136 198 138 173T147 131T167 107T202 99Q229 99 255 106T308 127Q313 112 315 91T317 52Q317 32 298 18T246 -3T175 -10ZM134 549Q120 549 110 564T96
595T91 610Q104 628 124 648T165 686T202 716T222 728Q241 728 255 701T273 646Q264 635 243 619T199 587T157 560T134 549Z" />
<glyph unicode="&#xea;" horiz-adv-x="344" d="M175 -10Q141 -10 113 0T64 37T32 109T20 226Q20 317 34 373T72 458T129 499T196 510Q256 510 290 472T324 347Q324 311 321 273T310 205Q281 199 243 196T169 192T110 190T86 190L88 279Q88 279 102 279T138 278T179
280T210 287Q213 296 214 311T215 339Q215 387 208 400T181 413Q168 413 159 402T145 369T138 313T136 233Q136 198 138 173T147 131T167 107T202 99Q229 99 255 106T308 127Q313 112 315 91T317 52Q317 32 298 18T246 -3T175 -10ZM229 550Q229 550 224 555T210
569T193 591T176 618Q176 618 170 608T154 585T134 561T114 551Q88 551 70 557T38 580L155 714Q166 717 177 717Q185 717 193 714T208 703Q208 703 223 688T257 650T291 608T306 577Q306 561 282 556T229 550Z" />
<glyph unicode="&#xeb;" horiz-adv-x="344" d="M175 -10Q141 -10 113 0T64 37T32 109T20 226Q20 317 34 373T72 458T129 499T196 510Q256 510 290 472T324 347Q324 311 321 273T310 205Q281 199 243 196T169 192T110 190T86 190L88 279Q88 279 102 279T138 278T179
280T210 287Q213 296 214 311T215 339Q215 387 208 400T181 413Q168 413 159 402T145 369T138 313T136 233Q136 198 138 173T147 131T167 107T202 99Q229 99 255 106T308 127Q313 112 315 91T317 52Q317 32 298 18T246 -3T175 -10ZM104 549Q81 549 67 565T53 626Q53
659 67 679T111 700Q140 700 151 685T162 631Q162 592 148 571T104 549ZM234 549Q210 549 196 565T182 626Q182 659 196 679T241 700Q270 700 280 685T291 631Q291 592 277 571T234 549Z" />
<glyph unicode="&#xec;" horiz-adv-x="180" d="M33 0V451Q33 476 42 486T76 498T147 500V20Q147 10 143 6T114 1T33 0ZM404 539Q400 539 382 550T340 577T295 609T265 636Q270 664 283 691T316 718Q321 718 336 707T373 677T414 638T447 600Q447 600 443 585T429
555T404 539Z" />
<glyph unicode="&#xed;" horiz-adv-x="180" d="M33 0V451Q33 476 42 486T76 498T147 500V20Q147 10 143 6T114 1T33 0ZM308 549Q294 549 284 564T270 595T265 610Q278 628 298 648T339 686T376 716T396 728Q415 728 429 701T447 646Q438 635 417 619T373 587T331
560T308 549Z" />
<glyph unicode="&#xee;" horiz-adv-x="180" d="M33 0V451Q33 476 42 486T76 498T147 500V20Q147 10 143 6T114 1T33 0ZM403 550Q403 550 398 555T384 569T367 591T350 618Q350 618 344 608T328 585T308 561T288 551Q262 551 244 557T212 580L329 714Q340 717 351
717Q359 717 367 714T382 703Q382 703 397 688T431 650T465 608T480 577Q480 561 456 556T403 550Z" />
<glyph unicode="&#xef;" horiz-adv-x="180" d="M33 0V451Q33 476 42 486T76 498T147 500V20Q147 10 143 6T114 1T33 0ZM278 549Q255 549 241 565T227 626Q227 659 241 679T285 700Q314 700 325 685T336 631Q336 592 322 571T278 549ZM408 549Q384 549 370 565T356
626Q356 659 370 679T415 700Q444 700 454 685T465 631Q465 592 451 571T408 549Z" />
<glyph unicode="&#xf0;" horiz-adv-x="385" d="M198 -10Q137 -10 98 15T39 98T20 258Q20 380 61 445T167 510Q205 510 226 496T265 455L270 339Q254 380 238 395T200 411Q175 411 161 385T141 318T135 237Q135 158 150 120T195 82Q215 82 226 96T242 136T249 199T251
278Q251 366 243 429T216 538T169 621T101 695Q115 718 138 731T184 745Q195 745 206 741T224 728Q290 666 327 560T365 289Q365 227 358 173T334 78T283 13T198 -10ZM108 539Q90 585 84 607T92 636L312 720Q330 674 336 652T328 624L108 539Z" />
<glyph unicode="&#xf1;" horiz-adv-x="361" d="M33 0V477Q49 485 76 492T133 505T188 510Q239 510 270 499T317 459T332 381V20Q332 10 327 6T297 1T216 0V346Q216 385 210 399T183 414Q173 414 163 411T145 402V20Q145 10 140 6T112 1T33 0ZM215 545Q196 545
187 551T171 566T158 580T136 587Q121 587 112 580T96 564T82 556Q67 556 55 570T36 597T29 611Q56 655 92 674T155 694Q170 694 180 688T197 673T214 658T237 651Q259 651 268 659T282 674T297 682Q308 682 316 667T328 636T333 620Q333 620 324 609T298 583T260
557T215 545Z" />
<glyph unicode="&#xf2;" horiz-adv-x="362" d="M178 -10Q138 -10 108 -1T59 36T30 115T20 251Q20 387 63 448T186 510Q240 510 274 489T325 412T342 255Q342 110 301 50T178 -10ZM181 83Q191 83 199 93T213 139T219 252Q219 324 216 359T205 406T182 417Q171 417
162 406T148 359T143 252Q143 194 145 160T152 109T164 88T181 83ZM239 539Q235 539 217 550T175 577T130 609T100 636Q105 664 118 691T151 718Q156 718 171 707T208 677T249 638T282 600Q282 600 278 585T264 555T239 539Z" />
<glyph unicode="&#xf3;" horiz-adv-x="362" d="M178 -10Q138 -10 108 -1T59 36T30 115T20 251Q20 387 63 448T186 510Q240 510 274 489T325 412T342 255Q342 110 301 50T178 -10ZM181 83Q191 83 199 93T213 139T219 252Q219 324 216 359T205 406T182 417Q171 417
162 406T148 359T143 252Q143 194 145 160T152 109T164 88T181 83ZM143 549Q129 549 119 564T105 595T100 610Q113 628 133 648T174 686T211 716T231 728Q250 728 264 701T282 646Q273 635 252 619T208 587T166 560T143 549Z" />
<glyph unicode="&#xf4;" horiz-adv-x="362" d="M178 -10Q138 -10 108 -1T59 36T30 115T20 251Q20 387 63 448T186 510Q240 510 274 489T325 412T342 255Q342 110 301 50T178 -10ZM181 83Q191 83 199 93T213 139T219 252Q219 324 216 359T205 406T182 417Q171 417
162 406T148 359T143 252Q143 194 145 160T152 109T164 88T181 83ZM238 550Q238 550 233 555T219 569T202 591T185 618Q185 618 179 608T163 585T143 561T123 551Q97 551 79 557T47 580L164 714Q175 717 186 717Q194 717 202 714T217 703Q217 703 232 688T266 650T300
608T315 577Q315 561 291 556T238 550Z" />
<glyph unicode="&#xf5;" horiz-adv-x="362" d="M178 -10Q138 -10 108 -1T59 36T30 115T20 251Q20 387 63 448T186 510Q240 510 274 489T325 412T342 255Q342 110 301 50T178 -10ZM181 83Q191 83 199 93T213 139T219 252Q219 324 216 359T205 406T182 417Q171 417
162 406T148 359T143 252Q143 194 145 160T152 109T164 88T181 83ZM215 545Q196 545 187 551T171 566T158 580T136 587Q121 587 112 580T96 564T82 556Q67 556 55 570T36 597T29 611Q56 655 92 674T155 694Q170 694 180 688T197 673T214 658T237 651Q259 651 268
659T282 674T297 682Q308 682 316 667T328 636T333 620Q333 620 324 609T298 583T260 557T215 545Z" />
<glyph unicode="&#xf6;" horiz-adv-x="362" d="M178 -10Q138 -10 108 -1T59 36T30 115T20 251Q20 387 63 448T186 510Q240 510 274 489T325 412T342 255Q342 110 301 50T178 -10ZM181 83Q191 83 199 93T213 139T219 252Q219 324 216 359T205 406T182 417Q171 417
162 406T148 359T143 252Q143 194 145 160T152 109T164 88T181 83ZM113 549Q90 549 76 565T62 626Q62 659 76 679T120 700Q149 700 160 685T171 631Q171 592 157 571T113 549ZM243 549Q219 549 205 565T191 626Q191 659 205 679T250 700Q279 700 289 685T300 631Q300
592 286 571T243 549Z" />
<glyph unicode="&#xf7;" horiz-adv-x="400" d="M25 234Q25 284 27 307T45 330H375Q375 281 373 258T355 234H25ZM200 59Q165 59 152 75T139 121Q139 147 155 165T200 184Q235 184 248 167T262 121Q262 96 246 78T200 59ZM200 376Q165 376 152 392T139 438Q139
464 155 482T200 501Q235 501 248 484T262 438Q262 413 246 395T200 376Z" />
<glyph unicode="&#xf8;" horiz-adv-x="398" d="M196 -10Q156 -10 126 -1T77 36T48 115T38 251Q38 387 81 448T204 510Q258 510 292 489T343 412T360 255Q360 110 319 50T196 -10ZM63 -30Q45 -27 24 -14T3 15Q3 19 12 36T33 75T54 112T63 128Q63 128 76 122T103
104T117 80Q117 73 110 57T93 23T75 -10T63 -30ZM199 83Q209 83 217 93T231 139T237 252Q237 324 234 358T223 403T200 414Q189 414 180 403T166 358T161 252Q161 194 163 160T170 109T182 88T199 83ZM139 69Q131 72 119 76T97 88T87 106L246 409Q246 409 259 407T284
397T297 377Q297 374 289 356T266 311T236 253T203 190T172 132T149 88T139 69ZM323 312Q323 312 313 317T288 331T263 349T252 367Q252 367 259 381T279 416T304 459T328 498T344 522Q344 522 359 517T390 501T406 478Q406 472 398 454T377 412T353 365T332 327T323
312Z" />
<glyph unicode="&#xf9;" horiz-adv-x="358" d="M180 -10Q120 -10 88 8T42 59T29 140V480Q29 490 33 494T62 499T145 500V133Q145 118 147 108T157 92T178 86Q188 86 198 89T216 99V480Q216 490 220 494T248 499T328 500V28Q304 14 265 2T180 -10ZM237 539Q233
539 215 550T173 577T128 609T98 636Q103 664 116 691T149 718Q154 718 169 707T206 677T247 638T280 600Q280 600 276 585T262 555T237 539Z" />
<glyph unicode="&#xfa;" horiz-adv-x="358" d="M180 -10Q120 -10 88 8T42 59T29 140V480Q29 490 33 494T62 499T145 500V133Q145 118 147 108T157 92T178 86Q188 86 198 89T216 99V480Q216 490 220 494T248 499T328 500V28Q304 14 265 2T180 -10ZM141 549Q127
549 117 564T103 595T98 610Q111 628 131 648T172 686T209 716T229 728Q248 728 262 701T280 646Q271 635 250 619T206 587T164 560T141 549Z" />
<glyph unicode="&#xfb;" horiz-adv-x="358" d="M180 -10Q120 -10 88 8T42 59T29 140V480Q29 490 33 494T62 499T145 500V133Q145 118 147 108T157 92T178 86Q188 86 198 89T216 99V480Q216 490 220 494T248 499T328 500V28Q304 14 265 2T180 -10ZM236 550Q236
550 231 555T217 569T200 591T183 618Q183 618 177 608T161 585T141 561T121 551Q95 551 77 557T45 580L162 714Q173 717 184 717Q192 717 200 714T215 703Q215 703 230 688T264 650T298 608T313 577Q313 561 289 556T236 550Z" />
<glyph unicode="&#xfc;" horiz-adv-x="358" d="M180 -10Q120 -10 88 8T42 59T29 140V480Q29 490 33 494T62 499T145 500V133Q145 118 147 108T157 92T178 86Q188 86 198 89T216 99V480Q216 490 220 494T248 499T328 500V28Q304 14 265 2T180 -10ZM111 549Q88 549
74 565T60 626Q60 659 74 679T118 700Q147 700 158 685T169 631Q169 592 155 571T111 549ZM241 549Q217 549 203 565T189 626Q189 659 203 679T248 700Q277 700 287 685T298 631Q298 592 284 571T241 549Z" />
<glyph unicode="&#xfd;" horiz-adv-x="340" d="M81 -193Q26 -193 8 -179T-11 -143Q-11 -128 -8 -111T3 -82Q12 -89 30 -94T71 -99Q89 -99 102 -82T121 -16L12 471Q9 486 12 492T39 499T122 500L151 327Q157 294 161 259T169 194T174 144T176 125Q176 125 177 144T182
193T189 258T197 327L216 469Q218 485 224 491T254 498T335 500L223 -23Q209 -88 192 -125T148 -178T81 -193ZM132 549Q118 549 108 564T94 595T89 610Q102 628 122 648T163 686T200 716T220 728Q239 728 253 701T271 646Q262 635 241 619T197 587T155 560T132
549Z" />
<glyph unicode="&#xfe;" horiz-adv-x="364" d="M78 -200Q48 -200 41 -190T33 -151V470Q62 488 101 498T181 509Q229 509 265 493T321 433T342 307Q342 227 334 171T313 80T282 25T247 -2T211 -10Q189 -10 173 -6T145 9V-191Q132 -195 115 -197T78 -200ZM173 84Q181
84 188 91T202 121T212 186T216 300Q216 353 212 377T198 407T173 413Q166 413 159 409T145 398V102Q150 90 157 87T173 84ZM33 229V686Q33 711 42 721T75 733T145 735V249L33 229Z" />
<glyph unicode="&#xff;" horiz-adv-x="340" d="M81 -193Q26 -193 8 -179T-11 -143Q-11 -128 -8 -111T3 -82Q12 -89 30 -94T71 -99Q89 -99 102 -82T121 -16L12 471Q9 486 12 492T39 499T122 500L151 327Q157 294 161 259T169 194T174 144T176 125Q176 125 177 144T182
193T189 258T197 327L216 469Q218 485 224 491T254 498T335 500L223 -23Q209 -88 192 -125T148 -178T81 -193ZM102 549Q79 549 65 565T51 626Q51 659 65 679T109 700Q138 700 149 685T160 631Q160 592 146 571T102 549ZM232 549Q208 549 194 565T180 626Q180 659
194 679T239 700Q268 700 278 685T289 631Q289 592 275 571T232 549Z" />
<glyph unicode="&#x2013;" horiz-adv-x="410" d="M30 234Q30 284 32 307T50 330H380Q380 281 378 258T360 234H30Z" />
<glyph unicode="&#x2014;" horiz-adv-x="700" d="M6 234Q6 284 8 307T26 330H694Q694 281 692 258T674 234H6Z" />
<glyph unicode="&#x2018;" horiz-adv-x="193" d="M100 570Q66 570 48 589T29 643Q29 675 40 703T67 752T98 786T121 799Q136 799 147 794T163 770Q152 751 147 739T140 718T136 695Q153 685 158 670T164 635Q164 608 146 589T100 570Z" />
<glyph unicode="&#x2019;" horiz-adv-x="193" d="M72 571Q57 571 46 576T30 600Q42 620 46 631T53 652T57 675Q41 685 35 700T29 735Q29 762 47 781T93 800Q128 800 146 781T164 727Q164 696 153 668T126 618T95 584T72 571Z" />
<glyph unicode="&#x201a;" horiz-adv-x="187" d="M72 -116Q57 -116 46 -111T30 -87Q42 -67 46 -56T53 -35T57 -12Q41 -2 35 13T29 48Q29 75 47 94T93 113Q128 113 146 94T164 40Q164 9 153 -19T126 -69T95 -103T72 -116Z" />
<glyph unicode="&#x201c;" horiz-adv-x="357" d="M264 570Q230 570 212 589T193 643Q193 675 204 703T231 752T262 786T285 799Q300 799 311 794T327 770Q316 751 311 739T304 718T300 695Q317 685 322 670T328 635Q328 608 310 589T264 570ZM100 570Q66 570 48
589T29 643Q29 675 40 703T67 752T98 786T121 799Q136 799 147 794T163 770Q152 751 147 739T140 718T136 695Q153 685 158 670T164 635Q164 608 146 589T100 570Z" />
<glyph unicode="&#x201d;" horiz-adv-x="357" d="M236 571Q221 571 210 576T194 600Q206 620 210 631T217 652T221 675Q205 685 199 700T193 735Q193 762 211 781T257 800Q292 800 310 781T328 727Q328 696 317 668T290 618T259 584T236 571ZM72 571Q57 571 46
576T30 600Q42 620 46 631T53 652T57 675Q41 685 35 700T29 735Q29 762 47 781T93 800Q128 800 146 781T164 727Q164 696 153 668T126 618T95 584T72 571Z" />
<glyph unicode="&#x201e;" horiz-adv-x="352" d="M236 -116Q221 -116 210 -111T194 -87Q206 -67 210 -56T217 -35T221 -12Q205 -2 199 13T193 48Q193 75 211 94T257 113Q292 113 310 94T328 40Q328 9 317 -19T290 -69T259 -103T236 -116ZM72 -116Q57 -116 46 -111T30
-87Q42 -67 46 -56T53 -35T57 -12Q41 -2 35 13T29 48Q29 75 47 94T93 113Q128 113 146 94T164 40Q164 9 153 -19T126 -69T95 -103T72 -116Z" />
<glyph unicode="&#x2022;" horiz-adv-x="235" d="M118 197Q66 197 48 220T29 286Q29 323 52 350T118 378Q169 378 188 353T207 286Q207 249 184 223T118 197Z" />
<glyph unicode="&#x2039;" horiz-adv-x="235" d="M148 0Q148 0 138 15T111 54T77 108T43 165T17 216T6 250Q6 261 16 283T43 334T77 391T111 445T137 485T148 500Q170 500 184 486T206 458T214 443Q214 430 207 411T187 371T162 328T137 289T118 261T110 250Q110
250 117 240T137 214T162 177T188 135T207 95T215 63Q215 63 207 47T185 16T148 0Z" />
<glyph unicode="&#x203a;" horiz-adv-x="235" d="M87 0Q87 0 77 3T54 14T30 34T20 63Q20 76 27 95T47 135T72 176T98 213T117 240T125 250Q125 250 118 260T98 288T73 327T48 370T29 411T21 443Q21 458 31 468T54 486T77 496T87 500Q87 500 97 485T124 446T158
392T192 334T218 284T229 250Q229 239 219 216T192 165T158 108T124 55T98 15T87 0Z" />
</font>
</defs>
</svg>
